<svg xmlns="http://www.w3.org/2000/svg" viewBox="0 0 595 514" width="595" height="514">
	<style>
		tspan { white-space:pre }
		.shp0 { fill: none } 
		.shp1 { fill: #ebebeb } 
		.shp2 { fill: #f5f5f5 } 
		.shp3 { fill: #f0f0f0 } 
		.shp4 { fill: #e6e6e6 } 
		.shp5 { fill: #71aecd } 
		.shp6 { fill: #4652ff } 
		.shp7 { fill: #f2b81b } 
		.shp8 { opacity: 0.478;fill: #ffffff } 
		.shp9 { opacity: 0.569;fill: #767eff } 
		.shp10 { opacity: 0.2;fill: #4652ff } 
		.shp11 { opacity: 0.302;fill: #ffffff } 
		.shp12 { opacity: 0.4;fill: #4652ff } 
		.shp13 { fill: #ffd168 } 
		.shp14 { opacity: 0.369;fill: #4e81ee } 
		.shp15 { opacity: 0.2;fill: #ffffff } 
		.shp16 { opacity: 0.702;fill: #ffffff } 
		.shp17 { opacity: 0.302;fill: #4652ff } 
		.shp18 { opacity: 0.8;fill: #ffffff } 
		.shp19 { fill: #263238 } 
		.shp20 { fill: #ffffff } 
		.shp21 { opacity: 0.502;fill: #ffffff } 
		.shp22 { opacity: 0.6;fill: #4652ff } 
		.shp23 { opacity: 0.502;fill: #4652ff } 
		.shp24 { opacity: 0.2;fill: #000000 } 
		.shp25 { opacity: 0.6;fill: #ffffff } 
		.shp26 { fill: #ffcd58 } 
		.shp27 { opacity: 0.988;fill: #c6d5f8 } 
		.shp28 { opacity: 0.18;fill: #ffffff } 
		.shp29 { fill: #ffc846 } 
		.txt30 { font-size: 50px;fill: #131313;font-family: "Segoe UI" } 
		.txt31 { font-size: 30px;fill: #818181;font-weight: 400;font-family: "Roboto-Regular", "Roboto" } 
	</style>
	<g id="Group_805">
		<g id="_404_Error-rafiki" style="opacity: 0.902">
			<g id="freepik--background-complete--inject-1">
				<path id="Path_844" class="shp0" d="M270.64 512.89L-46.62 512.89C-51.8 512.89 -56 509.34 -56 504.96L-56 -21.14C-55.96 -25.49 -51.77 -29 -46.62 -29L270.64 -29C275.82 -29 280.03 -25.45 280.03 -21.07L280.03 504.96C280.02 509.34 275.83 512.89 270.64 512.89ZM-46.62 -28.72C-51.57 -28.71 -55.58 -25.32 -55.59 -21.14L-55.59 504.96C-55.58 509.15 -51.57 512.54 -46.62 512.55L270.64 512.55C275.6 512.54 279.61 509.15 279.62 504.96L279.62 -21.14C279.61 -25.32 275.6 -28.72 270.64 -28.72L-46.62 -28.72Z" />
				<path id="Path_845" class="shp0" d="M624.62 512.89L307.36 512.89C302.18 512.89 297.97 509.34 297.97 504.96L297.97 -21.14C298.02 -25.49 302.21 -29 307.36 -29L624.62 -29C629.8 -29 634 -25.45 634 -21.07L634 504.96C634 509.34 629.8 512.89 624.62 512.89ZM307.36 -28.72C302.41 -28.71 298.39 -25.32 298.39 -21.14L298.39 504.96C298.39 509.15 302.41 512.54 307.36 512.55L624.62 512.55C629.57 512.54 633.58 509.15 633.59 504.96L633.59 -21.14C633.58 -25.32 629.57 -28.72 624.62 -28.72L307.36 -28.72Z" />
				<path id="Path_846" class="shp1" d="M64.69 127.59L67.36 132.96L73.3 133.83L69 138.02L70.02 143.93L64.7 141.14L59.39 143.93L60.41 138.02L56.11 133.83L62.06 132.96L64.69 127.59Z" />
				<path id="Path_847" class="shp2" d="M595.04 340.83L597.71 346.22L603.65 347.09L599.35 351.26L600.37 357.19L595.05 354.4L589.74 357.19L590.76 351.26L586.46 347.09L592.41 346.22L595.04 340.83Z" />
				<path id="Path_848" class="shp2" d="M490.01 467.74L492.67 473.12L498.61 473.99L494.3 478.18L495.32 484.09L490.02 481.3L484.71 484.09L485.71 478.18L481.42 473.99L487.35 473.12L490.01 467.74Z" />
				<path id="Path_849" class="shp1" d="M249.55 61.61L250.54 63.61L252.76 63.94C252.88 63.96 253 64.01 253.09 64.09C253.19 64.17 253.26 64.27 253.3 64.39C253.34 64.51 253.34 64.64 253.31 64.76C253.27 64.88 253.21 64.99 253.12 65.07L251.47 66.63L251.85 68.83C251.87 68.96 251.86 69.08 251.81 69.2C251.76 69.31 251.68 69.41 251.58 69.48C251.48 69.56 251.36 69.6 251.24 69.61C251.12 69.62 250.99 69.6 250.88 69.54L248.91 68.49L246.94 69.54C246.83 69.6 246.7 69.62 246.58 69.61C246.46 69.6 246.34 69.56 246.24 69.48C246.14 69.41 246.06 69.31 246.01 69.2C245.97 69.08 245.95 68.96 245.97 68.84L246.33 66.64L244.69 65.07C244.6 64.99 244.53 64.88 244.5 64.76C244.47 64.63 244.47 64.51 244.51 64.39C244.55 64.27 244.63 64.16 244.72 64.08C244.82 64 244.94 63.95 245.07 63.94L247.27 63.61L248.25 61.61C248.29 61.47 248.38 61.34 248.49 61.25C248.61 61.16 248.75 61.12 248.9 61.12C249.05 61.12 249.19 61.16 249.31 61.25C249.43 61.34 249.51 61.47 249.55 61.61L249.55 61.61Z" />
				<path id="Path_850" class="shp2" d="M-21.19 442.16L-20.2 444.15L-18 444.48C-17.87 444.5 -17.76 444.55 -17.66 444.63C-17.56 444.71 -17.49 444.82 -17.45 444.94C-17.41 445.06 -17.41 445.18 -17.44 445.31C-17.47 445.43 -17.53 445.54 -17.62 445.63L-19.26 447.17L-18.89 449.37C-18.87 449.5 -18.88 449.62 -18.93 449.74C-18.98 449.85 -19.05 449.95 -19.15 450.02C-19.25 450.1 -19.37 450.14 -19.5 450.15C-19.62 450.16 -19.74 450.14 -19.85 450.08L-21.83 449.04L-23.8 450.08C-23.91 450.14 -24.03 450.16 -24.16 450.15C-24.28 450.14 -24.4 450.1 -24.5 450.02C-24.6 449.95 -24.68 449.85 -24.72 449.74C-24.77 449.62 -24.79 449.5 -24.77 449.37L-24.39 447.17L-26.03 445.63C-26.12 445.54 -26.18 445.43 -26.22 445.31C-26.25 445.19 -26.24 445.06 -26.21 444.94C-26.17 444.82 -26.1 444.72 -26 444.64C-25.91 444.55 -25.79 444.5 -25.67 444.48L-23.47 444.15L-22.47 442.16C-22.43 442.03 -22.34 441.91 -22.23 441.83C-22.11 441.74 -21.97 441.7 -21.83 441.7C-21.69 441.7 -21.55 441.74 -21.43 441.83C-21.32 441.91 -21.23 442.03 -21.19 442.16L-21.19 442.16Z" />
				<path id="Path_851" class="shp1" d="M23.13 40.5L24.11 42.5L26.33 42.81C26.45 42.83 26.57 42.88 26.66 42.97C26.76 43.05 26.83 43.16 26.87 43.27C26.9 43.39 26.91 43.52 26.88 43.64C26.85 43.76 26.78 43.87 26.69 43.96L25.05 45.6L25.43 47.79C25.45 47.91 25.44 48.04 25.4 48.16C25.35 48.28 25.27 48.38 25.17 48.46C25.07 48.53 24.95 48.57 24.82 48.58C24.69 48.59 24.57 48.56 24.46 48.5L22.49 47.46L20.51 48.5C20.4 48.56 20.28 48.59 20.15 48.58C20.03 48.57 19.9 48.53 19.8 48.46C19.7 48.38 19.62 48.28 19.57 48.16C19.53 48.04 19.52 47.91 19.55 47.79L19.91 45.6L18.26 43.96C18.17 43.87 18.11 43.76 18.08 43.64C18.05 43.52 18.05 43.39 18.09 43.27C18.13 43.15 18.2 43.04 18.3 42.96C18.4 42.88 18.52 42.83 18.64 42.81L20.84 42.5L21.89 40.5C21.94 40.38 22.03 40.28 22.14 40.21C22.25 40.14 22.38 40.1 22.51 40.1C22.64 40.1 22.77 40.14 22.88 40.21C22.98 40.28 23.07 40.38 23.12 40.5L23.13 40.5Z" />
				<path id="Path_852" class="shp1" d="M20.47 364.46C20.47 365.34 19.94 366.14 19.13 366.49C18.31 366.83 17.37 366.65 16.74 366.02C16.11 365.4 15.92 364.46 16.26 363.64C16.6 362.82 17.39 362.29 18.28 362.29C18.57 362.29 18.85 362.34 19.11 362.45C19.38 362.56 19.62 362.72 19.82 362.92C20.02 363.12 20.18 363.36 20.29 363.63C20.4 363.89 20.46 364.17 20.47 364.46Z" />
				<path id="Path_853" class="shp1" d="M331.09 133.53C331.09 134.56 330.36 135.45 329.35 135.66C328.34 135.86 327.32 135.32 326.92 134.36C326.53 133.41 326.86 132.31 327.71 131.73C328.57 131.15 329.72 131.26 330.45 131.99C330.55 132.09 330.64 132.2 330.72 132.32C330.8 132.44 330.87 132.56 330.93 132.69C330.98 132.83 331.02 132.96 331.05 133.1C331.08 133.24 331.09 133.39 331.09 133.53Z" />
				<path id="Path_854" class="shp2" d="M218.02 42.31C218.02 43.19 217.49 43.99 216.68 44.32C215.86 44.66 214.92 44.48 214.29 43.85C213.67 43.23 213.48 42.29 213.82 41.47C214.16 40.65 214.96 40.12 215.84 40.12C216.13 40.12 216.41 40.18 216.68 40.29C216.94 40.4 217.18 40.56 217.38 40.76C217.59 40.96 217.75 41.2 217.86 41.47C217.97 41.73 218.02 42.02 218.02 42.31Z" />
				<path id="Ellipse_48" class="shp3" d="M221.49 475.92C214.99 477.45 208.49 473.44 206.96 466.94C205.42 460.44 209.44 453.94 215.94 452.41C222.44 450.88 228.93 454.89 230.46 461.39C232 467.89 227.98 474.38 221.49 475.92Z" />
				<path id="Path_855" class="shp4" d="M214.56 457.1C213.95 457.1 213.33 457.14 212.73 457.24C212.12 457.33 211.52 457.48 210.94 457.67C210.36 457.86 209.79 458.09 209.24 458.37C208.7 458.65 208.17 458.97 207.68 459.33C206.66 461.67 206.4 464.28 206.96 466.77C207.52 469.27 208.85 471.52 210.77 473.21C212.69 474.89 215.09 475.93 217.64 476.16C220.18 476.39 222.73 475.81 224.93 474.5L224.93 474.5C225.9 472.7 226.39 470.69 226.34 468.65C226.3 466.61 225.73 464.61 224.68 462.86C223.64 461.11 222.15 459.66 220.38 458.65C218.61 457.64 216.6 457.11 214.56 457.11L214.56 457.1Z" />
			</g>
			<g id="freepik--404--inject-1">
				<path id="Path_856" fill-rule="evenodd" class="shp5" d="M121.59 303.77L21.61 303.77L21.61 258.64L121.59 139.79L169.44 139.79L169.44 261.2L194.23 261.2L194.23 303.77L169.44 303.77L169.44 340.71L121.59 340.71L121.59 303.77ZM121.59 261.2L121.59 199.03L68.75 261.2L121.59 261.2Z" />
				<path id="Path_857" fill-rule="evenodd" class="shp5" d="M210.63 241.13C210.63 203.57 217.39 177.28 230.9 162.26C244.42 147.25 265.02 139.74 292.7 139.75C305.98 139.75 316.9 141.4 325.44 144.68C327.38 145.38 329.27 146.17 331.13 147.06C332.98 147.96 334.79 148.94 336.54 150.01C338.29 151.09 339.99 152.25 341.62 153.5C343.26 154.75 344.83 156.07 346.33 157.48C347.59 158.69 348.81 159.95 349.98 161.25C351.15 162.55 352.27 163.89 353.33 165.28C354.4 166.67 355.41 168.1 356.36 169.56C357.32 171.03 358.22 172.53 359.06 174.06C359.89 175.66 360.67 177.29 361.4 178.94C362.13 180.59 362.81 182.27 363.44 183.96C364.06 185.66 364.63 187.37 365.15 189.1C365.67 190.83 366.13 192.58 366.54 194.34C367.46 198.09 368.28 201.88 368.97 205.69C369.67 209.49 370.25 213.32 370.71 217.17C371.17 221.01 371.51 224.87 371.74 228.73C371.96 232.59 372.07 236.46 372.06 240.33C372.06 276.17 365.99 302.4 353.87 319.02C341.74 335.63 320.86 343.95 291.22 343.96C274.59 343.96 261.16 341.31 250.92 336.01C248.35 334.67 245.88 333.16 243.51 331.49C241.14 329.82 238.89 328 236.77 326.04C234.64 324.07 232.65 321.96 230.8 319.73C228.96 317.5 227.26 315.15 225.73 312.69C220.96 305.42 217.25 295.47 214.6 282.84C213.92 279.41 213.32 275.96 212.81 272.5C212.3 269.04 211.88 265.57 211.54 262.09C211.21 258.6 210.97 255.11 210.82 251.62C210.66 248.12 210.6 244.62 210.63 241.13L210.63 241.13ZM265.08 241.26C265.08 266.45 267.29 283.63 271.73 292.8C276.17 301.97 282.61 306.57 291.07 306.62C292.41 306.63 293.74 306.51 295.06 306.27C296.37 306.02 297.66 305.64 298.9 305.14C300.14 304.64 301.33 304.01 302.45 303.28C303.57 302.54 304.61 301.69 305.56 300.75C309.66 296.84 312.67 290.66 314.6 282.22C316.52 273.77 317.49 260.63 317.49 242.79C317.49 216.56 315.26 198.94 310.82 189.9C306.37 180.86 299.7 176.35 290.8 176.36C281.74 176.36 275.17 180.97 271.09 190.18C267.01 199.39 265.01 216.42 265.08 241.26L265.08 241.26Z" />
				<path id="Path_858" fill-rule="evenodd" class="shp5" d="M488.32 303.77L388.34 303.77L388.34 258.64L488.32 139.79L536.16 139.79L536.16 261.2L561.03 261.2L561.03 303.77L536.16 303.77L536.16 340.71L488.32 340.71L488.32 303.77ZM488.32 261.2L488.32 199.03L435.49 261.2L488.32 261.2Z" />
			</g>
			<g id="freepik--Planets--inject-1">
				<g id="Group_804" style="opacity: 0.302">
					<path id="Path_859" class="shp6" d="M211.69 115.67C211.68 117.13 210.64 118.38 209.21 118.65C207.78 118.93 206.35 118.16 205.8 116.81C205.25 115.46 205.73 113.91 206.94 113.11C208.15 112.3 209.77 112.46 210.8 113.5C210.94 113.64 211.06 113.8 211.17 113.96C211.29 114.13 211.38 114.31 211.46 114.5C211.53 114.68 211.59 114.87 211.63 115.07C211.67 115.27 211.69 115.47 211.69 115.67Z" />
					<path id="Ellipse_49" class="shp6" d="M1.84 213.07C0.64 213.07 -0.33 212.1 -0.33 210.9C-0.33 209.7 0.64 208.73 1.84 208.73C3.04 208.73 4.01 209.7 4.01 210.9C4.01 212.1 3.04 213.07 1.84 213.07Z" />
					<path id="Ellipse_50" class="shp6" d="M359.27 473.67C357.55 473.67 356.17 472.28 356.17 470.56C356.17 468.84 357.55 467.46 359.27 467.46C360.99 467.46 362.38 468.84 362.38 470.56C362.38 472.28 360.99 473.67 359.27 473.67Z" />
					<path id="Ellipse_51" class="shp6" d="M433.76 369.71C432.56 369.71 431.59 368.74 431.59 367.54C431.59 366.34 432.56 365.37 433.76 365.37C434.96 365.37 435.93 366.34 435.93 367.54C435.93 368.74 434.96 369.71 433.76 369.71Z" />
					<path id="Path_860" class="shp6" d="M577.46 55.74C577.46 56.62 576.93 57.41 576.12 57.74C575.31 58.08 574.38 57.89 573.75 57.27C573.13 56.65 572.95 55.72 573.29 54.91C573.62 54.1 574.41 53.57 575.29 53.57C575.57 53.57 575.86 53.63 576.12 53.74C576.38 53.84 576.62 54 576.82 54.21C577.02 54.41 577.18 54.65 577.29 54.91C577.4 55.17 577.46 55.45 577.46 55.74Z" />
					<path id="Path_861" class="shp6" d="M165.39 12C165.39 12.88 164.86 13.67 164.05 14.01C163.24 14.34 162.3 14.16 161.68 13.54C161.06 12.92 160.88 11.98 161.21 11.17C161.55 10.36 162.34 9.83 163.22 9.83C163.5 9.83 163.78 9.89 164.05 10C164.31 10.11 164.55 10.27 164.75 10.47C164.95 10.67 165.11 10.91 165.22 11.17C165.33 11.44 165.39 11.72 165.39 12Z" />
					<path id="Ellipse_52" class="shp6" d="M337.39 106.02C336.19 106.02 335.22 105.05 335.22 103.85C335.22 102.65 336.19 101.68 337.39 101.68C338.59 101.68 339.56 102.65 339.56 103.85C339.56 105.05 338.59 106.02 337.39 106.02Z" />
				</g>
				<path id="Ellipse_53" class="shp7" d="M113.99 125.81C94.09 125.81 78 109.72 78 89.81C78 69.91 94.09 53.82 113.99 53.82C133.9 53.82 149.99 69.91 149.99 89.81C149.99 109.72 133.9 125.81 113.99 125.81Z" />
				<path id="Ellipse_54" class="shp8" d="M113.99 125.81C94.09 125.81 78 109.72 78 89.81C78 69.91 94.09 53.82 113.99 53.82C133.9 53.82 149.99 69.91 149.99 89.81C149.99 109.72 133.9 125.81 113.99 125.81Z" />
				<path id="Path_862" class="shp9" d="M101.59 62.66C100.37 62.65 99.15 62.71 97.93 62.83C96.72 62.95 95.51 63.13 94.31 63.38C93.11 63.62 91.93 63.93 90.76 64.29C89.6 64.66 88.45 65.08 87.33 65.56C81.79 71.65 78.5 79.45 78.01 87.66C77.53 95.87 79.86 104.01 84.64 110.7C89.41 117.4 96.34 122.27 104.26 124.48C112.19 126.7 120.63 126.14 128.19 122.89L128.19 122.89C132.88 117.72 135.96 111.31 137.07 104.42C138.18 97.54 137.27 90.48 134.45 84.1C131.63 77.73 127.01 72.31 121.17 68.5C115.32 64.7 108.5 62.67 101.52 62.67L101.59 62.66Z" />
				<path id="Path_863" class="shp10" d="M98.01 72.17C98.01 73.5 97.21 74.7 95.98 75.2C94.75 75.71 93.34 75.43 92.4 74.49C91.46 73.55 91.18 72.14 91.69 70.91C92.19 69.68 93.39 68.88 94.72 68.88C95.15 68.88 95.58 68.97 95.98 69.13C96.38 69.3 96.74 69.54 97.04 69.84C97.35 70.15 97.59 70.51 97.76 70.91C97.92 71.31 98.01 71.74 98.01 72.17Z" />
				<path id="Path_864" class="shp10" d="M136.4 68.88C136.4 70.21 135.6 71.41 134.37 71.92C133.14 72.43 131.73 72.15 130.79 71.21C129.85 70.27 129.57 68.85 130.07 67.62C130.58 66.4 131.78 65.6 133.11 65.6C133.54 65.6 133.97 65.68 134.37 65.85C134.77 66.01 135.13 66.25 135.43 66.56C135.74 66.86 135.98 67.23 136.15 67.62C136.31 68.02 136.4 68.45 136.4 68.88Z" />
				<path id="Path_865" class="shp10" d="M129.85 92.34C129.85 94.52 128.54 96.49 126.52 97.32C124.51 98.16 122.19 97.7 120.65 96.15C119.11 94.61 118.65 92.3 119.48 90.28C120.31 88.27 122.28 86.96 124.46 86.96C125.17 86.96 125.87 87.09 126.52 87.37C127.18 87.64 127.77 88.03 128.27 88.53C128.77 89.03 129.17 89.63 129.44 90.28C129.71 90.94 129.85 91.64 129.85 92.34L129.85 92.34Z" />
				<path id="Path_866" class="shp10" d="M113.03 107.71C113.03 110.62 111.27 113.24 108.58 114.36C105.89 115.47 102.79 114.86 100.73 112.8C98.67 110.74 98.06 107.64 99.17 104.95C100.29 102.26 102.91 100.51 105.83 100.51C106.77 100.51 107.71 100.69 108.58 101.05C109.45 101.42 110.25 101.95 110.92 102.61C111.58 103.28 112.12 104.08 112.48 104.95C112.84 105.82 113.03 106.76 113.03 107.71Z" />
				<path id="Ellipse_55" class="shp6" d="M539.23 425.08C535.21 442.08 518.22 452.58 501.22 448.57C484.21 444.56 473.71 427.57 477.73 410.56C481.74 393.56 498.73 383.06 515.73 387.07C532.74 391.08 543.24 408.07 539.23 425.08Z" />
				<path id="Ellipse_56" class="shp11" d="M539.23 425.08C535.21 442.08 518.22 452.58 501.22 448.57C484.21 444.56 473.71 427.57 477.73 410.56C481.74 393.56 498.73 383.06 515.73 387.07C532.74 391.08 543.24 408.07 539.23 425.08Z" />
				<path id="Path_867" class="shp12" d="M528.43 393.36C521.43 391.24 513.91 391.63 507.15 394.44C500.4 397.26 494.83 402.33 491.41 408.79C487.98 415.26 486.9 422.71 488.36 429.88C489.82 437.05 493.72 443.49 499.4 448.1C500.13 448.33 500.88 448.52 501.63 448.69C502.38 448.86 503.13 449 503.89 449.11C504.65 449.23 505.42 449.31 506.18 449.37C506.95 449.42 507.72 449.45 508.48 449.45C515.01 449.45 521.37 447.43 526.7 443.67C532.03 439.91 536.06 434.59 538.25 428.44C540.43 422.3 540.66 415.62 538.9 409.34C537.15 403.06 533.49 397.48 528.43 393.36L528.43 393.36Z" />
				<path id="Path_868" class="shp13" d="M478.32 427.3C444.59 443.17 469.74 455.41 517.27 438.33C561.29 422.5 578.07 402.56 538.63 408.75C540.75 417.05 485.63 438.52 478.32 427.3Z" />
			</g>
			<g id="freepik--Astronaut--inject-1">
				<path id="Path_870" class="shp14" d="M296.51 485.7C268.58 485.7 240.96 473.1 227.51 452.53C219.21 439.81 209.57 413.18 238.29 377.64L240.83 379.71C220.53 404.85 216.78 430.07 230.27 450.74C246.7 475.88 285.46 488.53 318.55 479.52C352.44 470.31 373.01 440.83 375 398.65C381.78 254.38 458.43 209.94 514.39 177.49C549.17 157.33 574.29 142.77 568.77 112.03C568 107.78 566.31 104.83 563.57 103.03C556.42 98.32 542.45 101.59 526.29 105.35C494.56 112.74 451.12 122.87 425.24 78.85L428.08 77.21C452.73 119.15 493.1 109.74 525.55 102.18C542.45 98.25 557.05 94.85 565.37 100.32C568.9 102.64 571.07 106.3 571.94 111.5C577.87 144.49 550.58 160.33 516 180.37C460.68 212.44 384.94 256.36 378.23 398.89C376.16 442.59 354.71 473.17 319.35 482.78C317.49 483.28 315.61 483.71 313.73 484.08C311.84 484.45 309.94 484.76 308.03 485C306.12 485.25 304.2 485.43 302.28 485.54C300.36 485.66 298.44 485.71 296.51 485.7L296.51 485.7Z" />
				<path id="Path_871" class="shp15" d="M296.51 485.7C268.58 485.7 240.96 473.1 227.51 452.53C219.21 439.81 209.57 413.18 238.29 377.64L240.83 379.71C220.53 404.85 216.78 430.07 230.27 450.74C246.7 475.88 285.46 488.53 318.55 479.52C352.44 470.31 373.01 440.83 375 398.65C381.78 254.38 458.43 209.94 514.39 177.49C549.17 157.33 574.29 142.77 568.77 112.03C568 107.78 566.31 104.83 563.57 103.03C556.42 98.32 542.45 101.59 526.29 105.35C494.56 112.74 451.12 122.87 425.24 78.85L428.08 77.21C452.73 119.15 493.1 109.74 525.55 102.18C542.45 98.25 557.05 94.85 565.37 100.32C568.9 102.64 571.07 106.3 571.94 111.5C577.87 144.49 550.58 160.33 516 180.37C460.68 212.44 384.94 256.36 378.23 398.89C376.16 442.59 354.71 473.17 319.35 482.78C317.49 483.28 315.61 483.71 313.73 484.08C311.84 484.45 309.94 484.76 308.03 485C306.12 485.25 304.2 485.43 302.28 485.54C300.36 485.66 298.44 485.71 296.51 485.7L296.51 485.7Z" />
				<path id="Path_872" class="shp6" d="M391.41 40C393.3 40.02 395.19 40.1 397.07 40.25C398.96 40.4 400.83 40.62 402.7 40.92C404.57 41.21 406.42 41.57 408.26 42C410.1 42.44 411.92 42.94 413.72 43.5C415.53 44.07 431.8 74.34 433.93 81.41C433.18 88.37 421.43 99.79 421.43 99.79L391.41 40Z" />
				<path id="Path_873" class="shp11" d="M391.41 40C393.3 40.02 395.19 40.1 397.07 40.25C398.96 40.4 400.83 40.62 402.7 40.92C404.57 41.21 406.42 41.57 408.26 42C410.1 42.44 411.92 42.94 413.72 43.5C415.53 44.07 431.8 74.34 433.93 81.41C433.18 88.37 421.43 99.79 421.43 99.79L391.41 40Z" />
				<path id="Path_874" class="shp6" d="M444.94 189.73C443.2 187.6 441.5 185.45 439.84 183.26C438.17 181.07 436.55 178.86 434.97 176.61C433.38 174.37 431.84 172.09 430.34 169.8C428.83 167.5 427.37 165.17 425.95 162.82C424.57 160.44 423.26 158.02 422.02 155.56C421.31 154.16 420.64 152.76 419.98 151.35C419.77 151.01 419.57 150.66 419.37 150.3C419.18 149.94 419 149.58 418.84 149.21C418.67 148.84 418.52 148.46 418.38 148.08C418.24 147.7 418.11 147.32 418 146.93C416.02 126.11 423.16 110.79 416.35 94.08L389.28 104.66C389.28 104.66 391.58 134.43 396.83 152.3C400.12 163.36 407.48 172.92 414.6 181.78C416.81 184.54 418.95 187.38 421.17 190.16C423.39 192.94 425.62 195.19 427.74 197.8C430.94 201.76 431.99 205.55 429.58 210.22L429.17 210.96C428.48 212.17 431.7 213.56 433.74 210.96C437.02 206.72 436.56 206.98 439.42 203.37C441.16 201.18 443.15 198.8 444.88 196.79C445.29 196.31 445.61 195.75 445.84 195.15C446.06 194.55 446.18 193.91 446.18 193.27C446.19 192.63 446.08 192 445.87 191.39C445.66 190.79 445.35 190.23 444.94 189.73L444.94 189.73Z" />
				<path id="Path_875" class="shp16" d="M444.94 189.73C443.2 187.6 441.5 185.45 439.84 183.26C438.17 181.07 436.55 178.86 434.97 176.61C433.38 174.37 431.84 172.09 430.34 169.8C428.83 167.5 427.37 165.17 425.95 162.82C424.57 160.44 423.26 158.02 422.02 155.56C421.31 154.16 420.64 152.76 419.98 151.35C419.77 151.01 419.57 150.66 419.37 150.3C419.18 149.94 419 149.58 418.84 149.21C418.67 148.84 418.52 148.46 418.38 148.08C418.24 147.7 418.11 147.32 418 146.93C416.02 126.11 423.16 110.79 416.35 94.08L389.28 104.66C389.28 104.66 391.58 134.43 396.83 152.3C400.12 163.36 407.48 172.92 414.6 181.78C416.81 184.54 418.95 187.38 421.17 190.16C423.39 192.94 425.62 195.19 427.74 197.8C430.94 201.76 431.99 205.55 429.58 210.22L429.17 210.96C428.48 212.17 431.7 213.56 433.74 210.96C437.02 206.72 436.56 206.98 439.42 203.37C441.16 201.18 443.15 198.8 444.88 196.79C445.29 196.31 445.61 195.75 445.84 195.15C446.06 194.55 446.18 193.91 446.18 193.27C446.19 192.63 446.08 192 445.87 191.39C445.66 190.79 445.35 190.23 444.94 189.73L444.94 189.73Z" />
				<path id="Path_876" class="shp17" d="M438.32 181.17C437.25 182.32 436.14 183.44 435.01 184.54C433.88 185.63 432.72 186.69 431.53 187.72C430.34 188.75 429.13 189.75 427.89 190.72C426.65 191.69 425.38 192.62 424.09 193.53C424.8 194.31 425.49 195.17 426.19 195.93C427.48 195.05 428.74 194.14 429.97 193.19C431.21 192.23 432.41 191.24 433.57 190.21C434.74 189.18 435.87 188.11 436.97 187C438.07 185.9 439.13 184.76 440.16 183.59L438.32 181.17Z" />
				<path id="Path_877" class="shp17" d="M444.94 189.73L444.74 189.5C444.43 189.86 444.14 190.25 443.9 190.65C443.65 191.06 443.43 191.49 443.26 191.93C443.08 192.37 442.94 192.83 442.84 193.29C442.74 193.76 442.67 194.23 442.65 194.71C442.63 195.04 442.62 195.37 442.63 195.7C442.65 196.02 442.68 196.35 442.73 196.68C442.78 197 442.86 197.32 442.95 197.64C443.04 197.96 443.15 198.27 443.28 198.57L444.84 196.71C445.24 196.23 445.56 195.68 445.78 195.09C446 194.5 446.12 193.87 446.13 193.24C446.14 192.61 446.04 191.98 445.84 191.38C445.63 190.79 445.33 190.23 444.94 189.73L444.94 189.73Z" />
				<path id="Path_878" class="shp6" d="M384.97 59.72C384.24 60.82 383.47 61.89 382.66 62.93C381.86 63.98 381.02 65 380.14 65.98C379.27 66.97 378.36 67.93 377.42 68.86C376.48 69.78 375.51 70.67 374.51 71.53C373.95 72.01 373.38 72.48 372.8 72.92C372.22 73.37 371.62 73.8 371.02 74.21C370.41 74.62 369.79 75.01 369.16 75.39C368.53 75.77 367.89 76.12 367.24 76.46C366.9 76.64 366.56 76.81 366.21 76.97C365.86 77.13 365.51 77.29 365.16 77.44C364.8 77.59 364.45 77.73 364.09 77.87C363.73 78 363.37 78.13 363 78.25L361.89 78.61L361.53 78.71L360.76 78.93C360.64 78.96 360.52 78.98 360.4 79.01C360.28 79.03 360.16 79.05 360.04 79.07C359.92 79.09 359.79 79.11 359.67 79.12C359.55 79.14 359.43 79.15 359.31 79.16C358.96 79.19 358.62 79.2 358.27 79.19C357.92 79.19 357.58 79.18 357.23 79.14C356.89 79.11 356.54 79.07 356.2 79.01C355.86 78.94 355.52 78.87 355.19 78.78C354.76 78.66 354.34 78.53 353.93 78.38C353.51 78.23 353.11 78.07 352.7 77.9C352.3 77.72 351.9 77.53 351.51 77.33C351.12 77.13 350.73 76.92 350.35 76.69C350.05 76.52 349.75 76.33 349.45 76.15C349.15 75.96 348.85 75.77 348.56 75.58C348.26 75.39 347.97 75.19 347.68 74.99C347.39 74.79 347.11 74.59 346.82 74.38C346.31 74 345.8 73.61 345.3 73.21C344.8 72.81 344.3 72.41 343.81 72C343.32 71.59 342.84 71.17 342.36 70.74C341.88 70.32 341.41 69.89 340.94 69.45C340.04 68.6 339.16 67.73 338.3 66.84C337.44 65.95 336.6 65.04 335.78 64.12C334.95 63.2 334.15 62.26 333.37 61.3C332.59 60.34 331.82 59.36 331.08 58.37C330.51 57.6 330.23 56.66 330.28 55.7C330.34 54.74 330.72 53.83 331.37 53.13C332.03 52.42 332.9 51.97 333.85 51.84C334.8 51.71 335.77 51.92 336.58 52.43L336.71 52.43C340.59 54.89 344.5 57.49 348.31 59.8C350.25 60.94 352.13 62.09 353.98 62.97C354.19 63.08 354.41 63.19 354.62 63.3C354.84 63.4 355.05 63.5 355.27 63.6C355.49 63.7 355.71 63.8 355.93 63.89C356.15 63.98 356.37 64.07 356.59 64.16C356.73 64.22 356.87 64.27 357.02 64.32C357.16 64.37 357.31 64.41 357.45 64.45C357.6 64.48 357.75 64.51 357.9 64.54C358.05 64.56 358.2 64.57 358.35 64.58C358.45 64.58 358.35 64.47 357.74 64.48C357.7 64.48 357.65 64.48 357.6 64.48C357.55 64.48 357.5 64.48 357.46 64.48C357.41 64.48 357.36 64.48 357.31 64.48C357.26 64.48 357.22 64.48 357.17 64.48L356.81 64.57L356.81 64.57L357.35 64.29C357.53 64.19 357.71 64.09 357.89 63.98C358.07 63.88 358.25 63.78 358.43 63.67C358.6 63.56 358.78 63.45 358.95 63.33C359.13 63.22 359.3 63.11 359.47 62.99C359.84 62.73 360.2 62.46 360.55 62.19C360.91 61.91 361.26 61.63 361.6 61.34C361.94 61.05 362.28 60.75 362.61 60.44C362.94 60.14 363.26 59.82 363.58 59.5C364.29 58.75 365 57.99 365.69 57.22C366.39 56.44 367.07 55.66 367.74 54.87C368.41 54.07 369.07 53.27 369.72 52.46C370.37 51.65 371 50.82 371.63 49.99L371.63 49.99C372.99 48.46 374.88 47.5 376.92 47.29C378.96 47.08 381 47.65 382.64 48.87C384.29 50.09 385.42 51.88 385.81 53.89C386.21 55.9 385.84 57.98 384.77 59.73L384.97 59.72Z" />
				<path id="Path_879" class="shp16" d="M384.97 59.72C384.24 60.82 383.47 61.89 382.66 62.93C381.86 63.98 381.02 65 380.14 65.98C379.27 66.97 378.36 67.93 377.42 68.86C376.48 69.78 375.51 70.67 374.51 71.53C373.95 72.01 373.38 72.48 372.8 72.92C372.22 73.37 371.62 73.8 371.02 74.21C370.41 74.62 369.79 75.01 369.16 75.39C368.53 75.77 367.89 76.12 367.24 76.46C366.9 76.64 366.56 76.81 366.21 76.97C365.86 77.13 365.51 77.29 365.16 77.44C364.8 77.59 364.45 77.73 364.09 77.87C363.73 78 363.37 78.13 363 78.25L361.89 78.61L361.53 78.71L360.76 78.93C360.64 78.96 360.52 78.98 360.4 79.01C360.28 79.03 360.16 79.05 360.04 79.07C359.92 79.09 359.79 79.11 359.67 79.12C359.55 79.14 359.43 79.15 359.31 79.16C358.96 79.19 358.62 79.2 358.27 79.19C357.92 79.19 357.58 79.18 357.23 79.14C356.89 79.11 356.54 79.07 356.2 79.01C355.86 78.94 355.52 78.87 355.19 78.78C354.76 78.66 354.34 78.53 353.93 78.38C353.51 78.23 353.11 78.07 352.7 77.9C352.3 77.72 351.9 77.53 351.51 77.33C351.12 77.13 350.73 76.92 350.35 76.69C350.05 76.52 349.75 76.33 349.45 76.15C349.15 75.96 348.85 75.77 348.56 75.58C348.26 75.39 347.97 75.19 347.68 74.99C347.39 74.79 347.11 74.59 346.82 74.38C346.31 74 345.8 73.61 345.3 73.21C344.8 72.81 344.3 72.41 343.81 72C343.32 71.59 342.84 71.17 342.36 70.74C341.88 70.32 341.41 69.89 340.94 69.45C340.04 68.6 339.16 67.73 338.3 66.84C337.44 65.95 336.6 65.04 335.78 64.12C334.95 63.2 334.15 62.26 333.37 61.3C332.59 60.34 331.82 59.36 331.08 58.37C330.51 57.6 330.23 56.66 330.28 55.7C330.34 54.74 330.72 53.83 331.37 53.13C332.03 52.42 332.9 51.97 333.85 51.84C334.8 51.71 335.77 51.92 336.58 52.43L336.71 52.43C340.59 54.89 344.5 57.49 348.31 59.8C350.25 60.94 352.13 62.09 353.98 62.97C354.19 63.08 354.41 63.19 354.62 63.3C354.84 63.4 355.05 63.5 355.27 63.6C355.49 63.7 355.71 63.8 355.93 63.89C356.15 63.98 356.37 64.07 356.59 64.16C356.73 64.22 356.87 64.27 357.02 64.32C357.16 64.37 357.31 64.41 357.45 64.45C357.6 64.48 357.75 64.51 357.9 64.54C358.05 64.56 358.2 64.57 358.35 64.58C358.45 64.58 358.35 64.47 357.74 64.48C357.7 64.48 357.65 64.48 357.6 64.48C357.55 64.48 357.5 64.48 357.46 64.48C357.41 64.48 357.36 64.48 357.31 64.48C357.26 64.48 357.22 64.48 357.17 64.48L356.81 64.57L356.81 64.57L357.35 64.29C357.53 64.19 357.71 64.09 357.89 63.98C358.07 63.88 358.25 63.78 358.43 63.67C358.6 63.56 358.78 63.45 358.95 63.33C359.13 63.22 359.3 63.11 359.47 62.99C359.84 62.73 360.2 62.46 360.55 62.19C360.91 61.91 361.26 61.63 361.6 61.34C361.94 61.05 362.28 60.75 362.61 60.44C362.94 60.14 363.26 59.82 363.58 59.5C364.29 58.75 365 57.99 365.69 57.22C366.39 56.44 367.07 55.66 367.74 54.87C368.41 54.07 369.07 53.27 369.72 52.46C370.37 51.65 371 50.82 371.63 49.99L371.63 49.99C372.99 48.46 374.88 47.5 376.92 47.29C378.96 47.08 381 47.65 382.64 48.87C384.29 50.09 385.42 51.88 385.81 53.89C386.21 55.9 385.84 57.98 384.77 59.73L384.97 59.72Z" />
				<path id="Path_880" class="shp6" d="M324.92 48.91L326.84 52.2C326.84 52.2 328.3 56.5 331.24 57.29L339.23 54.71L338.82 54.04L338.82 54.04C337.8 52.49 337.92 49.49 338.26 46.99C338.6 44.49 337.32 44.41 336.37 45.03C336.2 45.23 336.04 45.43 335.9 45.64C335.76 45.85 335.63 46.08 335.51 46.3C335.39 46.53 335.29 46.77 335.2 47.01C335.12 47.25 335.04 47.49 334.99 47.74C334.89 47.61 334.79 47.47 334.68 47.34C334.58 47.21 334.48 47.08 334.37 46.95C334.26 46.83 334.15 46.7 334.03 46.58C333.92 46.46 333.81 46.33 333.69 46.22L331.25 43.78C331 43.54 330.71 43.34 330.38 43.2C330.05 43.06 329.71 42.99 329.35 42.98C329 42.97 328.65 43.03 328.31 43.15C327.98 43.27 327.68 43.45 327.41 43.68L325.44 45.44C325.21 45.66 325.01 45.91 324.86 46.19C324.72 46.47 324.62 46.77 324.57 47.08C324.52 47.4 324.53 47.71 324.58 48.03C324.64 48.34 324.75 48.64 324.91 48.91L324.92 48.91Z" />
				<path id="Path_881" class="shp16" d="M324.92 48.91L326.84 52.2C326.84 52.2 328.3 56.5 331.24 57.29L339.23 54.71L338.82 54.04L338.82 54.04C337.8 52.49 337.92 49.49 338.26 46.99C338.6 44.49 337.32 44.41 336.37 45.03C336.2 45.23 336.04 45.43 335.9 45.64C335.76 45.85 335.63 46.08 335.51 46.3C335.39 46.53 335.29 46.77 335.2 47.01C335.12 47.25 335.04 47.49 334.99 47.74C334.89 47.61 334.79 47.47 334.68 47.34C334.58 47.21 334.48 47.08 334.37 46.95C334.26 46.83 334.15 46.7 334.03 46.58C333.92 46.46 333.81 46.33 333.69 46.22L331.25 43.78C331 43.54 330.71 43.34 330.38 43.2C330.05 43.06 329.71 42.99 329.35 42.98C329 42.97 328.65 43.03 328.31 43.15C327.98 43.27 327.68 43.45 327.41 43.68L325.44 45.44C325.21 45.66 325.01 45.91 324.86 46.19C324.72 46.47 324.62 46.77 324.57 47.08C324.52 47.4 324.53 47.71 324.58 48.03C324.64 48.34 324.75 48.64 324.91 48.91L324.92 48.91Z" />
				<path id="Path_882" class="shp6" d="M399.48 37.08C397.27 37.67 395.08 38.33 392.92 39.07C390.75 39.81 388.61 40.62 386.51 41.51C384.4 42.4 382.32 43.36 380.28 44.4C378.24 45.43 376.24 46.54 374.28 47.71C373.67 48.09 373.12 48.56 372.65 49.11C372.19 49.66 371.8 50.27 371.52 50.93C371.24 51.59 371.06 52.29 370.98 53.01C370.91 53.73 370.95 54.45 371.09 55.15C374.26 70.66 381.48 91.43 389.26 104.65L425.59 89.62C425.84 83.21 417.02 62.48 408.03 42.43C406.41 38.84 403.31 36.16 399.48 37.08Z" />
				<path id="Path_883" class="shp18" d="M399.48 37.08C397.27 37.67 395.08 38.33 392.92 39.07C390.75 39.81 388.61 40.62 386.51 41.51C384.4 42.4 382.32 43.36 380.28 44.4C378.24 45.43 376.24 46.54 374.28 47.71C373.67 48.09 373.12 48.56 372.65 49.11C372.19 49.66 371.8 50.27 371.52 50.93C371.24 51.59 371.06 52.29 370.98 53.01C370.91 53.73 370.95 54.45 371.09 55.15C374.26 70.66 381.48 91.43 389.26 104.65L425.59 89.62C425.84 83.21 417.02 62.48 408.03 42.43C406.41 38.84 403.31 36.16 399.48 37.08Z" />
				<path id="Path_884" class="shp17" d="M413.66 55.14L406.44 52.72C408.09 56.94 413.89 62.28 417.94 65.42C416.64 62.14 415.17 58.68 413.66 55.14Z" />
				<path id="Path_885" class="shp6" d="M397.1 20.82C394.09 15.1 387.6 12.22 379.81 12.86C373.24 13.42 367.42 20.13 368.11 23.74C368.8 27.36 374.32 28.9 375.37 30.15L370.82 33.43C370.28 33.82 369.83 34.32 369.49 34.89C369.14 35.46 368.92 36.09 368.83 36.75C368.73 37.41 368.78 38.08 368.95 38.72C369.12 39.36 369.43 39.96 369.84 40.48C371.76 42.91 374.29 45.41 375.75 47.25C388.34 46.92 397.65 42.13 401.02 37.51C399.76 31.66 400.02 26.5 397.1 20.82Z" />
				<path id="Path_886" class="shp18" d="M397.1 20.82C394.09 15.1 387.6 12.22 379.81 12.86C373.24 13.42 367.42 20.13 368.11 23.74C368.8 27.36 374.32 28.9 375.37 30.15L370.82 33.43C370.28 33.82 369.83 34.32 369.49 34.89C369.14 35.46 368.92 36.09 368.83 36.75C368.73 37.41 368.78 38.08 368.95 38.72C369.12 39.36 369.43 39.96 369.84 40.48C371.76 42.91 374.29 45.41 375.75 47.25C388.34 46.92 397.65 42.13 401.02 37.51C399.76 31.66 400.02 26.5 397.1 20.82Z" />
				<path id="Path_887" class="shp19" d="M390.92 24.36C392.75 29.05 391.57 34.37 387.94 37.86C384.31 41.34 378.94 42.29 374.34 40.27C369.73 38.25 366.8 33.66 366.9 28.63C367 23.6 370.12 19.13 374.8 17.3C376.32 16.7 377.95 16.41 379.58 16.45C381.22 16.48 382.83 16.83 384.32 17.49C385.82 18.15 387.17 19.09 388.31 20.27C389.44 21.45 390.33 22.84 390.92 24.36Z" />
				<path id="Path_888" class="shp6" d="M497.6 172.43C497.42 167.03 497.17 167.5 497.02 162.95C496.92 160.16 496.91 157.05 496.89 154.38C496.89 153.74 496.78 153.12 496.57 152.52C496.35 151.93 496.04 151.38 495.63 150.89C495.23 150.4 494.75 149.99 494.21 149.66C493.67 149.34 493.08 149.11 492.46 148.99C490.29 148.54 488.1 148.13 485.88 147.67C483.04 147.06 480.23 146.41 477.46 145.6C475.29 144.98 473.16 144.29 471.03 143.52C468.91 142.74 466.53 141.87 464.33 140.85C461.73 139.75 459.17 138.57 456.64 137.34C453.8 135.99 450.99 134.58 448.18 133.15C437.37 115.26 437.14 103.46 425.54 89.62L400.63 100.9C400.63 100.9 418.93 133.36 431.39 147.13C438.57 155.05 449.82 158.63 459.86 161.23C467.11 163.09 474.45 164.52 481.79 165.88C484.65 166.41 487.76 166.6 490.22 168.31C490.67 168.66 491.09 169.04 491.47 169.46C491.86 169.89 492.2 170.34 492.5 170.82C492.8 171.31 493.05 171.82 493.26 172.35C493.47 172.87 493.63 173.42 493.74 173.98C493.85 174.44 493.95 174.9 494.04 175.36C494.35 176.74 497.71 175.68 497.6 172.43Z" />
				<path id="Path_889" class="shp18" d="M497.6 172.43C497.42 167.03 497.17 167.5 497.02 162.95C496.92 160.16 496.91 157.05 496.89 154.38C496.89 153.74 496.78 153.12 496.57 152.52C496.35 151.93 496.04 151.38 495.63 150.89C495.23 150.4 494.75 149.99 494.21 149.66C493.67 149.34 493.08 149.11 492.46 148.99C490.29 148.54 488.1 148.13 485.88 147.67C483.04 147.06 480.23 146.41 477.46 145.6C475.29 144.98 473.16 144.29 471.03 143.52C468.91 142.74 466.53 141.87 464.33 140.85C461.73 139.75 459.17 138.57 456.64 137.34C453.8 135.99 450.99 134.58 448.18 133.15C437.37 115.26 437.14 103.46 425.54 89.62L400.63 100.9C400.63 100.9 418.93 133.36 431.39 147.13C438.57 155.05 449.82 158.63 459.86 161.23C467.11 163.09 474.45 164.52 481.79 165.88C484.65 166.41 487.76 166.6 490.22 168.31C490.67 168.66 491.09 169.04 491.47 169.46C491.86 169.89 492.2 170.34 492.5 170.82C492.8 171.31 493.05 171.82 493.26 172.35C493.47 172.87 493.63 173.42 493.74 173.98C493.85 174.44 493.95 174.9 494.04 175.36C494.35 176.74 497.71 175.68 497.6 172.43Z" />
				<path id="Path_890" class="shp17" d="M484.96 147.46C483.98 147.24 482.99 147.03 481.99 146.78C482.07 152.47 479.41 162.26 478.44 165.23L481.56 165.83C482.07 164.35 482.53 162.85 482.93 161.34C483.33 159.83 483.67 158.31 483.95 156.77C484.24 155.23 484.46 153.69 484.63 152.13C484.8 150.58 484.91 149.02 484.96 147.46L484.96 147.46Z" />
				<path id="Path_891" class="shp17" d="M496.96 154.37C496.96 153.74 496.85 153.12 496.63 152.53C496.42 151.93 496.11 151.38 495.71 150.89C495.31 150.41 494.83 149.99 494.29 149.67C493.75 149.34 493.16 149.11 492.54 148.99L490.89 148.67C490.96 149.13 491.07 149.59 491.22 150.03C491.37 150.47 491.56 150.9 491.79 151.31C492.01 151.71 492.28 152.1 492.58 152.46C492.88 152.81 493.21 153.14 493.57 153.44C493.81 153.65 494.05 153.86 494.31 154.04C494.57 154.23 494.83 154.41 495.11 154.56C495.39 154.72 495.67 154.86 495.96 154.99C496.25 155.11 496.55 155.22 496.86 155.31C496.88 155.23 496.9 155.16 496.91 155.08C496.93 155 496.94 154.92 496.95 154.85C496.95 154.77 496.96 154.69 496.96 154.61C496.96 154.53 496.96 154.45 496.96 154.37L496.96 154.37Z" />
				<path id="Path_892" class="shp20" d="M388.6 24.46C389.26 26.96 386.47 29.57 384.25 27.42C383.73 26.87 383.2 26.32 382.66 25.79C382.12 25.26 381.56 24.74 381 24.24C380.43 23.73 379.86 23.24 379.27 22.76C378.68 22.28 378.09 21.81 377.48 21.36C375.2 19.93 378.24 17.43 381.83 18.4C382.6 18.59 383.34 18.88 384.03 19.25C384.73 19.62 385.38 20.07 385.97 20.6C386.55 21.12 387.08 21.72 387.52 22.37C387.96 23.02 388.33 23.73 388.6 24.46Z" />
				<path id="Path_893" class="shp6" d="M388.78 103.85C387.63 104.28 389.74 106.25 389.74 106.25C389.74 106.25 412.74 98.38 426.7 90.28C426.72 90.04 426.71 89.79 426.67 89.55C426.63 89.31 426.56 89.07 426.46 88.85C426.36 88.62 426.24 88.41 426.09 88.21C425.95 88.02 425.78 87.84 425.59 87.68C422.6 89.2 419.59 90.68 416.56 92.11C413.53 93.55 410.48 94.94 407.42 96.29C404.35 97.63 401.26 98.94 398.15 100.2C395.05 101.46 391.93 102.68 388.79 103.85L388.78 103.85Z" />
				<path id="Path_894" class="shp21" d="M388.78 103.85C387.63 104.28 389.74 106.25 389.74 106.25C389.74 106.25 412.74 98.38 426.7 90.28C426.72 90.04 426.71 89.79 426.67 89.55C426.63 89.31 426.56 89.07 426.46 88.85C426.36 88.62 426.24 88.41 426.09 88.21C425.95 88.02 425.78 87.84 425.59 87.68C422.6 89.2 419.59 90.68 416.56 92.11C413.53 93.55 410.48 94.94 407.42 96.29C404.35 97.63 401.26 98.94 398.15 100.2C395.05 101.46 391.93 102.68 388.79 103.85L388.78 103.85Z" />
				<path id="Path_895" class="shp6" d="M405.71 36C410.24 38.3 414.5 40.71 418.85 43.39C420.97 44.74 423.07 46.1 425.16 47.58C427.24 49.06 429.32 50.57 431.4 52.28L432.17 52.92L433.14 53.81C433.29 53.94 433.43 54.07 433.57 54.2C433.71 54.33 433.85 54.47 433.99 54.61C434.12 54.74 434.26 54.88 434.39 55.02C434.52 55.16 434.66 55.31 434.78 55.45C435.31 56.03 435.75 56.58 436.18 57.09C436.62 57.6 437.07 58.21 437.45 58.74C437.83 59.26 438.21 59.8 438.58 60.34C438.94 60.87 439.31 61.42 439.66 61.96C440.01 62.51 440.36 63.07 440.7 63.62C441.04 64.18 441.37 64.74 441.69 65.31C442.33 66.41 442.94 67.52 443.53 68.64C444.13 69.76 444.7 70.89 445.24 72.04C445.79 73.18 446.32 74.34 446.82 75.5C447.32 76.67 447.8 77.84 448.26 79.03C448.6 79.92 448.61 80.91 448.31 81.81C448 82.72 447.39 83.49 446.58 83.99C445.77 84.5 444.81 84.71 443.86 84.59C442.91 84.47 442.03 84.02 441.38 83.33L441.29 83.23C438.01 79.73 434.84 76.05 431.65 72.61C428.46 69.18 425.23 65.7 422.55 64.17C418.82 61.85 414.66 59.54 410.54 57.27L398.12 50.37L398.12 50.37C396.21 49.34 394.78 47.6 394.15 45.52C393.51 43.45 393.73 41.2 394.74 39.28C395.76 37.36 397.49 35.93 399.57 35.28C401.64 34.64 403.88 34.84 405.81 35.84L405.71 36Z" />
				<path id="Path_896" class="shp18" d="M405.71 36C410.24 38.3 414.5 40.71 418.85 43.39C420.97 44.74 423.07 46.1 425.16 47.58C427.24 49.06 429.32 50.57 431.4 52.28L432.17 52.92L433.14 53.81C433.29 53.94 433.43 54.07 433.57 54.2C433.71 54.33 433.85 54.47 433.99 54.61C434.12 54.74 434.26 54.88 434.39 55.02C434.52 55.16 434.66 55.31 434.78 55.45C435.31 56.03 435.75 56.58 436.18 57.09C436.62 57.6 437.07 58.21 437.45 58.74C437.83 59.26 438.21 59.8 438.58 60.34C438.94 60.87 439.31 61.42 439.66 61.96C440.01 62.51 440.36 63.07 440.7 63.62C441.04 64.18 441.37 64.74 441.69 65.31C442.33 66.41 442.94 67.52 443.53 68.64C444.13 69.76 444.7 70.89 445.24 72.04C445.79 73.18 446.32 74.34 446.82 75.5C447.32 76.67 447.8 77.84 448.26 79.03C448.6 79.92 448.61 80.91 448.31 81.81C448 82.72 447.39 83.49 446.58 83.99C445.77 84.5 444.81 84.71 443.86 84.59C442.91 84.47 442.03 84.02 441.38 83.33L441.29 83.23C438.01 79.73 434.84 76.05 431.65 72.61C428.46 69.18 425.23 65.7 422.55 64.17C418.82 61.85 414.66 59.54 410.54 57.27L398.12 50.37L398.12 50.37C396.21 49.34 394.78 47.6 394.15 45.52C393.51 43.45 393.73 41.2 394.74 39.28C395.76 37.36 397.49 35.93 399.57 35.28C401.64 34.64 403.88 34.84 405.81 35.84L405.71 36Z" />
				<path id="Path_897" class="shp6" d="M452.15 87.23L450.75 83.73C450.75 83.73 449.98 79.26 447.2 78.01L438.99 79.31L439.27 80.03L439.27 80.03C440.02 81.67 439.45 84.68 438.71 87.08C437.97 89.48 439.22 89.79 440.27 89.31C440.86 89.05 441.44 87.98 442.06 86.85C442.14 86.99 442.22 87.13 442.3 87.27C442.38 87.41 442.46 87.55 442.55 87.69C442.64 87.82 442.72 87.96 442.82 88.09C442.91 88.23 443 88.36 443.1 88.49L445.12 91.27C445.33 91.55 445.59 91.8 445.89 91.99C446.19 92.17 446.52 92.31 446.86 92.37C447.21 92.44 447.57 92.44 447.92 92.37C448.26 92.31 448.6 92.18 448.9 91.99L451.13 90.56C451.39 90.38 451.62 90.16 451.8 89.91C451.99 89.66 452.13 89.37 452.22 89.07C452.32 88.77 452.36 88.46 452.34 88.14C452.33 87.83 452.27 87.52 452.15 87.23L452.15 87.23Z" />
				<path id="Path_898" class="shp18" d="M452.15 87.23L450.75 83.73C450.75 83.73 449.98 79.26 447.2 78.01L438.99 79.31L439.27 80.03L439.27 80.03C440.02 81.67 439.45 84.68 438.71 87.08C437.97 89.48 439.22 89.79 440.27 89.31C440.86 89.05 441.44 87.98 442.06 86.85C442.14 86.99 442.22 87.13 442.3 87.27C442.38 87.41 442.46 87.55 442.55 87.69C442.64 87.82 442.72 87.96 442.82 88.09C442.91 88.23 443 88.36 443.1 88.49L445.12 91.27C445.33 91.55 445.59 91.8 445.89 91.99C446.19 92.17 446.52 92.31 446.86 92.37C447.21 92.44 447.57 92.44 447.92 92.37C448.26 92.31 448.6 92.18 448.9 91.99L451.13 90.56C451.39 90.38 451.62 90.16 451.8 89.91C451.99 89.66 452.13 89.37 452.22 89.07C452.32 88.77 452.36 88.46 452.34 88.14C452.33 87.83 452.27 87.52 452.15 87.23L452.15 87.23Z" />
				<path id="Path_899" class="shp17" d="M398.77 54.89L396.77 55.06L384.46 84.76C384.63 84.77 384.8 84.78 384.97 84.78C385.13 84.78 385.3 84.77 385.47 84.76C385.64 84.74 385.8 84.72 385.97 84.7C386.13 84.67 386.3 84.64 386.46 84.6C386.63 84.56 402.5 78.62 407.34 76.38C404.1 69.66 398.77 54.89 398.77 54.89Z" />
				<path id="Path_900" class="shp20" d="M376.31 62.68C376.69 64.62 377.14 66.54 377.67 68.44C378.2 70.34 378.81 72.21 379.5 74.06C380.19 75.91 380.95 77.73 381.79 79.52C382.63 81.3 383.54 83.05 384.53 84.76C390.54 82.69 400.56 78.78 405.43 76.55C404.61 74.79 403.82 73.03 403.04 71.26C402.27 69.49 401.53 67.71 400.8 65.91C400.08 64.12 399.38 62.32 398.7 60.51C398.02 58.7 397.37 56.88 396.74 55.06C391.59 55.4 380.3 59.72 376.31 62.68Z" />
				<path id="Path_901" class="shp17" d="M388.52 69.1C388.03 70.75 386.6 71.93 384.89 72.11C383.18 72.28 381.54 71.41 380.73 69.9C379.91 68.39 380.09 66.54 381.17 65.21C382.26 63.88 384.04 63.34 385.68 63.83C386.21 63.99 386.71 64.25 387.14 64.6C387.57 64.96 387.93 65.39 388.19 65.88C388.45 66.37 388.62 66.9 388.68 67.46C388.73 68.01 388.68 68.57 388.52 69.1Z" />
				<path id="Path_902" class="shp22" d="M391.66 63.45C391.53 64.01 391.06 64.44 390.49 64.52C389.92 64.6 389.36 64.32 389.07 63.82C388.79 63.32 388.85 62.69 389.22 62.24C389.58 61.8 390.19 61.62 390.74 61.81C390.9 61.86 391.06 61.94 391.19 62.05C391.32 62.16 391.44 62.3 391.52 62.45C391.61 62.6 391.66 62.77 391.69 62.94C391.71 63.11 391.7 63.28 391.66 63.45L391.66 63.45Z" />
				<path id="Path_903" class="shp22" d="M395.34 62.02C395.27 62.42 395.03 62.76 394.69 62.97C394.35 63.18 393.94 63.23 393.55 63.12C393.17 63 392.86 62.73 392.69 62.36C392.52 62 392.52 61.58 392.68 61.22C392.73 61.04 392.81 60.88 392.93 60.74C393.05 60.6 393.19 60.49 393.35 60.4C393.51 60.31 393.68 60.26 393.86 60.24C394.04 60.23 394.23 60.24 394.4 60.3C394.57 60.35 394.74 60.44 394.88 60.55C395.02 60.67 395.14 60.81 395.22 60.97C395.31 61.13 395.36 61.3 395.38 61.48C395.4 61.67 395.39 61.85 395.34 62.02L395.34 62.02Z" />
				<path id="Path_904" class="shp23" d="M400.5 74.82L385.3 80.82L384.4 77.83L399.58 71.83L400.5 74.82Z" />
			</g>
			<g id="freepik--Rocket--inject-1">
				<path id="Path_905" class="shp24" d="M317.11 251.92C317.22 254.31 317.28 256.7 317.29 259.09C317.29 261.48 317.24 263.88 317.13 266.26C317.03 268.65 316.87 271.04 316.65 273.42C316.43 275.8 316.16 278.18 315.83 280.54C314.33 289.08 311.65 295.41 307.77 299.53C306.87 300.52 305.87 301.42 304.8 302.21C303.72 303.01 302.57 303.69 301.36 304.26C300.14 304.82 298.88 305.27 297.58 305.59C296.28 305.9 294.95 306.09 293.61 306.14C285.18 306.58 278.5 302.31 273.58 293.34C273.36 292.94 273.15 292.53 272.95 292.12C272.74 291.71 272.55 291.3 272.36 290.88C272.17 290.46 271.99 290.04 271.82 289.62C271.65 289.2 271.48 288.77 271.32 288.34C269.08 290.48 266.89 292.66 264.73 294.88C262.58 297.1 260.47 299.36 258.4 301.67C256.34 303.97 254.32 306.32 252.34 308.7C250.37 311.08 248.44 313.5 246.56 315.96L238.38 326.69C239.61 327.82 240.89 328.89 242.21 329.92C243.52 330.94 244.88 331.92 246.27 332.83C247.67 333.75 249.09 334.61 250.56 335.42C252.02 336.22 253.51 336.97 255.03 337.66C265.53 342.41 279.08 344.36 295.69 343.51C298.61 343.36 301.43 343.13 304.16 342.82C306.48 338.98 308.68 335.07 310.78 331.1C312.87 327.13 314.85 323.1 316.71 319.01C318.58 314.93 320.32 310.79 321.95 306.61C323.58 302.43 325.08 298.2 326.47 293.93L347.53 229.11L317.11 251.92Z" />
				<path id="Path_906" class="shp19" d="M101.89 350.07L132.11 377.3L208.59 297.33C180.32 288.19 127.98 321.05 101.89 350.07Z" />
				<path id="Path_907" class="shp19" d="M207.28 444.98C197.62 436.27 177.06 417.75 177.06 417.75L248.65 333.38C260.61 360.49 233.37 416.01 207.28 444.98Z" />
				<path id="Path_908" class="shp6" d="M307.79 258.22L335.98 196.17L277.19 230.68C272.48 233.45 267.86 236.37 263.35 239.46C258.84 242.54 254.44 245.78 250.15 249.17C245.86 252.56 241.69 256.09 237.65 259.77C233.61 263.44 229.69 267.26 225.91 271.21L127.96 373.52L181.2 421.49L272.79 313.45C276.33 309.28 279.72 304.99 282.95 300.58C286.19 296.18 289.28 291.66 292.2 287.05C295.13 282.43 297.9 277.71 300.5 272.9C303.1 268.09 305.53 263.2 307.79 258.22L307.79 258.22Z" />
				<path id="Path_909" class="shp25" d="M307.79 258.22L335.98 196.17L277.19 230.68C272.48 233.45 267.86 236.37 263.35 239.46C258.84 242.54 254.44 245.78 250.15 249.17C245.86 252.56 241.69 256.09 237.65 259.77C233.61 263.44 229.69 267.26 225.91 271.21L127.96 373.52L181.2 421.49L272.79 313.45C276.33 309.28 279.72 304.99 282.95 300.58C286.19 296.18 289.28 291.66 292.2 287.05C295.13 282.43 297.9 277.71 300.5 272.9C303.1 268.09 305.53 263.2 307.79 258.22L307.79 258.22Z" />
				<path id="Ellipse_57" class="shp20" d="M246.39 318C234.68 318.61 224.72 309.63 224.11 297.93C223.5 286.22 232.47 276.26 244.18 275.65C255.89 275.04 265.85 284.01 266.46 295.72C267.07 307.43 258.1 317.39 246.39 318Z" />
				<path id="Ellipse_58" class="shp26" d="M245.99 310.43C238.47 310.82 232.07 305.06 231.68 297.53C231.29 290.01 237.05 283.61 244.58 283.22C252.1 282.83 258.5 288.59 258.89 296.12C259.28 303.64 253.52 310.04 245.99 310.43Z" />
				<path id="Path_910" class="shp17" d="M197.37 402.41L145.24 355.44L183.83 315.15L233.44 359.87L197.37 402.41Z" />
				<path id="Path_911" class="shp27" d="M115.46 394.82C78.52 399.76 67.47 424.15 64.91 455.94C63.61 472.15 63.51 488.5 50.49 498.62C49.71 499.22 49.14 500.05 48.87 500.99C48.59 501.94 48.64 502.95 48.99 503.87C49.34 504.79 49.98 505.57 50.81 506.1C51.64 506.62 52.62 506.86 53.6 506.79C103.32 502.64 125.28 477.05 127.66 466.72C127.54 468.06 127.38 469.4 127.18 470.73C126.98 472.06 126.75 473.38 126.47 474.7C126.2 476.01 125.89 477.32 125.54 478.62C125.19 479.92 124.81 481.2 124.39 482.48C124.07 483.38 124.06 484.36 124.33 485.28C124.61 486.19 125.17 486.99 125.92 487.57C126.68 488.15 127.61 488.48 128.56 488.5C129.52 488.52 130.45 488.24 131.24 487.7C144.75 478.23 161.44 461.2 161.25 434.99C150.22 420.96 115.46 394.82 115.46 394.82Z" />
				<path id="Path_912" class="shp28" d="M115.46 394.82C78.52 399.76 67.47 424.15 64.91 455.94C63.61 472.15 63.51 488.5 50.49 498.62C49.71 499.22 49.14 500.05 48.87 500.99C48.59 501.94 48.64 502.95 48.99 503.87C49.34 504.79 49.98 505.57 50.81 506.1C51.64 506.62 52.62 506.86 53.6 506.79C103.32 502.64 125.28 477.05 127.66 466.72C127.54 468.06 127.38 469.4 127.18 470.73C126.98 472.06 126.75 473.38 126.47 474.7C126.2 476.01 125.89 477.32 125.54 478.62C125.19 479.92 124.81 481.2 124.39 482.48C124.07 483.38 124.06 484.36 124.33 485.28C124.61 486.19 125.17 486.99 125.92 487.57C126.68 488.15 127.61 488.48 128.56 488.5C129.52 488.52 130.45 488.24 131.24 487.7C144.75 478.23 161.44 461.2 161.25 434.99C150.22 420.96 115.46 394.82 115.46 394.82Z" />
				<path id="Path_913" class="shp29" d="M167.59 445.9L105.08 389.57L136.37 381.08L172.79 413.89L167.59 445.9Z" />
			</g>
		</g>
		<text id="Oops!" style="transform: matrix(1,0,0,1,223.094,598)" >
			<tspan x="0" y="0" class="txt30">Oops!</tspan>
		</text>
		<text id="We can't seem to find the page you are looking for" style="transform: matrix(1,0,0,1,-45.614,658)" >
			<tspan x="0" y="0" class="txt31">We can't seem to find the page you are looking for</tspan>
		</text>
	</g>
</svg>