<svg xmlns="http://www.w3.org/2000/svg" width="39.42" height="26.25" viewBox="0 0 39.42 26.25">
  <g id="Group_6101" data-name="Group 6101" transform="translate(-135 -252)">
    <path id="Path_22644" data-name="Path 22644" d="M43.726,70.17H20.53c-.453,0-.82.582-.82,1.3s.367,1.3.82,1.3h23.2c.453,0,.82-.582.82-1.3S44.179,70.17,43.726,70.17Z" transform="translate(115.29 205.477)"/>
    <path id="Path_22645" data-name="Path 22645" d="M51.906,48h-31.1a1.32,1.32,0,0,0,0,2.6h31.1a1.32,1.32,0,0,0,0-2.6Z" transform="translate(115.29 215.823)"/>
    <path id="Path_22646" data-name="Path 22646" d="M57.828,25.83H21.011a1.3,1.3,0,1,0,0,2.6H57.828a1.3,1.3,0,1,0,0-2.6Z" transform="translate(115.29 226.17)"/>
  </g>
</svg>
