<svg xmlns="http://www.w3.org/2000/svg" width="86.873" height="108.006" viewBox="0 0 86.873 108.006">
  <g id="Group_6137" data-name="Group 6137" transform="translate(-71 -25.996)">
    <g id="Group_6120" data-name="Group 6120" transform="translate(106.347 66.249)">
      <path id="Path_22662" data-name="Path 22662" d="M240.613,197.438,272.862,253.4a1.52,1.52,0,0,1-1.917,2.157l-10.85-4.7a1.518,1.518,0,0,0-2.11,1.221l-1.366,11.763a1.518,1.518,0,0,1-2.823.585l-32.249-55.961Z" transform="translate(-221.546 -197.438)" fill="#ff624b"/>
    </g>
    <g id="Group_6123" data-name="Group 6123" transform="translate(106.347 66.249)">
      <g id="Group_6121" data-name="Group 6121" transform="translate(0)">
        <path id="Path_22663" data-name="Path 22663" d="M232.816,210.345l11.426-6.609-3.629-6.3-19.067,11.029L253.8,264.428a1.518,1.518,0,0,0,2.823-.585l1.178-10.15Z" transform="translate(-221.546 -197.438)" fill="#ff4b34"/>
      </g>
      <g id="Group_6122" data-name="Group 6122" transform="translate(47.612 55.175)">
        <path id="Path_22664" data-name="Path 22664" d="M428.024,433.2l-1.488-.644a1.518,1.518,0,0,0-2.11,1.22l-.1.824,1.786.773a1.52,1.52,0,0,0,1.917-2.157Z" transform="translate(-424.33 -432.432)" fill="#ff4b34"/>
      </g>
    </g>
    <g id="Group_6124" data-name="Group 6124" transform="translate(71.001 66.249)">
      <path id="Path_22665" data-name="Path 22665" d="M103.46,197.438,71.211,253.4a1.52,1.52,0,0,0,1.917,2.157l10.85-4.7a1.518,1.518,0,0,1,2.11,1.221l1.366,11.763a1.518,1.518,0,0,0,2.823.585l32.249-55.961Z" transform="translate(-71.001 -197.438)" fill="#ff624b"/>
    </g>
    <g id="Group_6125" data-name="Group 6125" transform="translate(71.001 66.249)">
      <path id="Path_22666" data-name="Path 22666" d="M86.089,252.081l.36,3.1,23.586-41.069,6.924,4.019,5.568-9.662L103.46,197.438,71.211,253.4a1.52,1.52,0,0,0,1.917,2.157l10.851-4.7A1.517,1.517,0,0,1,86.089,252.081Z" transform="translate(-71.001 -197.438)" fill="#ff4b34"/>
    </g>
    <g id="Group_6126" data-name="Group 6126" transform="translate(77.208 25.997)">
      <path id="Path_22667" data-name="Path 22667" d="M138.771,29.7l1.609-1.832a5.464,5.464,0,0,1,9.545,3.107l.227,2.43a5.468,5.468,0,0,0,6.639,4.832l2.377-.534a5.474,5.474,0,0,1,5.9,8.135l-1.242,2.1a5.48,5.48,0,0,0,2.536,7.819l2.236.967a5.481,5.481,0,0,1,0,10.055l-2.236.967a5.48,5.48,0,0,0-2.536,7.819l1.242,2.1a5.474,5.474,0,0,1-5.9,8.135l-2.377-.534a5.467,5.467,0,0,0-6.639,4.832l-.227,2.43a5.464,5.464,0,0,1-9.545,3.107L138.771,93.8a5.46,5.46,0,0,0-8.206,0l-1.609,1.832a5.464,5.464,0,0,1-9.545-3.107l-.227-2.43a5.468,5.468,0,0,0-6.639-4.832l-2.377.534a5.474,5.474,0,0,1-5.9-8.135l1.242-2.1a5.48,5.48,0,0,0-2.536-7.819l-2.236-.967a5.481,5.481,0,0,1,0-10.055l2.236-.967a5.48,5.48,0,0,0,2.536-7.819l-1.242-2.1a5.474,5.474,0,0,1,5.9-8.135l2.377.534a5.467,5.467,0,0,0,6.639-4.832l.227-2.43a5.464,5.464,0,0,1,9.545-3.107l1.609,1.832A5.46,5.46,0,0,0,138.771,29.7Z" transform="translate(-97.439 -26)" fill="#ff9079"/>
    </g>
    <g id="Group_6128" data-name="Group 6128" transform="translate(77.208 25.996)">
      <g id="Group_6127" data-name="Group 6127">
        <path id="Path_22668" data-name="Path 22668" d="M135.149,90.091a5.468,5.468,0,0,0-6.639-4.832l-2.377.534a5.474,5.474,0,0,1-5.9-8.135l1.242-2.1a5.481,5.481,0,0,0-2.536-7.819l-2.236-.967a5.481,5.481,0,0,1,0-10.055l2.236-.967a5.48,5.48,0,0,0,2.536-7.819l-1.242-2.1a5.474,5.474,0,0,1,5.9-8.135l2.377.534a5.467,5.467,0,0,0,6.639-4.832l.177-1.891a5.443,5.443,0,0,1-4.761-1.814l-1.609-1.832a5.464,5.464,0,0,0-9.545,3.107l-.227,2.43a5.468,5.468,0,0,1-6.639,4.832l-2.377-.534a5.474,5.474,0,0,0-5.9,8.135l1.242,2.1a5.48,5.48,0,0,1-2.536,7.819l-2.236.967a5.481,5.481,0,0,0,0,10.055l2.236.967a5.481,5.481,0,0,1,2.536,7.819l-1.242,2.1a5.474,5.474,0,0,0,5.9,8.135l2.377-.534a5.467,5.467,0,0,1,6.639,4.832l.227,2.43a5.464,5.464,0,0,0,9.545,3.107l1.609-1.832a5.443,5.443,0,0,1,4.761-1.814Z" transform="translate(-97.439 -25.996)" fill="#ff624b"/>
      </g>
    </g>
    <g id="Group_6129" data-name="Group 6129" transform="translate(88.929 36.189)">
      <ellipse id="Ellipse_324" data-name="Ellipse 324" cx="25.508" cy="25.556" rx="25.508" ry="25.556" transform="translate(0 0)" fill="#ffd551"/>
    </g>
    <g id="Group_6130" data-name="Group 6130" transform="translate(125.182 60.336)">
      <path id="Path_22669" data-name="Path 22669" d="M303.172,193.141a1.409,1.409,0,0,1-.791-2.575,20.408,20.408,0,0,0,8.98-16.905,1.409,1.409,0,0,1,2.818,0A23.222,23.222,0,0,1,303.961,192.9,1.4,1.4,0,0,1,303.172,193.141Z" transform="translate(-301.762 -172.252)" fill="#fce575"/>
    </g>
    <g id="Group_6131" data-name="Group 6131" transform="translate(99.213 45.88)">
      <path id="Path_22670" data-name="Path 22670" d="M213.483,118.376l6.431,2.071a2.348,2.348,0,0,1,1.1,3.713l-4.253,5.251a2.348,2.348,0,0,0-.523,1.484l.017,6.757a2.348,2.348,0,0,1-3.189,2.2l-6.308-2.422a2.346,2.346,0,0,0-1.573-.039l-6.421,2.1a2.348,2.348,0,0,1-3.076-2.354l.354-6.747a2.346,2.346,0,0,0-.449-1.508l-3.986-5.456a2.348,2.348,0,0,1,1.289-3.653l6.527-1.748a2.35,2.35,0,0,0,1.3-.893l3.957-5.477a2.348,2.348,0,0,1,3.872.1l3.68,5.667A2.35,2.35,0,0,0,213.483,118.376Z" transform="translate(-191.161 -110.685)" fill="#fff4c1"/>
    </g>
    <g id="Group_6132" data-name="Group 6132" transform="translate(88.929 36.189)">
      <path id="Path_22671" data-name="Path 22671" d="M160.506,94.964A25.59,25.59,0,0,1,179.44,70.273a25.556,25.556,0,1,0,0,49.381A25.589,25.589,0,0,1,160.506,94.964Z" transform="translate(-147.358 -69.408)" fill="#f9bb32"/>
    </g>
    <g id="Group_6135" data-name="Group 6135" transform="translate(99.213 54.379)">
      <g id="Group_6133" data-name="Group 6133" transform="translate(0)">
        <path id="Path_22672" data-name="Path 22672" d="M194.029,154.432c0-.061,0-.122,0-.183a25.51,25.51,0,0,1,1.081-7.365l-2.2.59a2.348,2.348,0,0,0-1.289,3.653Z" transform="translate(-191.161 -146.884)" fill="#fce575"/>
      </g>
      <g id="Group_6134" data-name="Group 6134" transform="translate(4.53 16.634)">
        <path id="Path_22673" data-name="Path 22673" d="M212.357,221.479a25.42,25.42,0,0,1-1.829-3.749l-.07,1.32A2.349,2.349,0,0,0,212.357,221.479Z" transform="translate(-210.456 -217.73)" fill="#fce575"/>
      </g>
    </g>
    <g id="Group_6136" data-name="Group 6136" transform="translate(120.542 40.98)">
      <circle id="Ellipse_325" data-name="Ellipse 325" cx="4.226" cy="4.226" r="4.226" transform="translate(0 0)" fill="#f9bb32"/>
    </g>
  </g>
</svg>
