<svg id="Group_6" data-name="Group 6" xmlns="http://www.w3.org/2000/svg" width="155" height="20" viewBox="0 0 155 20">
  <path id="Path_9" data-name="Path 9" d="M403.992,356.268a2.3,2.3,0,0,1,2.316-2.316,2.294,2.294,0,0,1,0,4.588A2.291,2.291,0,0,1,403.992,356.268Z" transform="translate(-253.758 -349.614)" fill="#0f313d" fill-rule="evenodd"/>
  <path id="Path_10" data-name="Path 10" d="M406.224,358.157h.49v-.935h.49c.4,0,.4.134.4.49a1.812,1.812,0,0,0,.089.445h.534v-.045c-.089-.045-.089-.089-.089-.49,0-.445-.089-.49-.312-.624a.542.542,0,0,0,.4-.579.673.673,0,0,0-.757-.668h-1.247v2.405Zm.49-1.336v-.668h.668a.382.382,0,0,1,.356.312c0,.267-.178.356-.4.356Z" transform="translate(-254.609 -350.285)" fill="#0f313d" fill-rule="evenodd"/>
  <path id="Path_11" data-name="Path 11" d="M343.978,347.184l-10.69,20h26.234l1.693-3.158H346.472l2.717-5.08h14.743l1.782-3.3H350.881l2.761-5.126h28.149v-3.341Z" transform="translate(-226.792 -347.184)" fill="#0f313d" fill-rule="evenodd"/>
  <path id="Path_12" data-name="Path 12" d="M300.584,347.184a6.182,6.182,0,0,0-5.3,3.021l-2.984,5.446c-1.648,3.3,1.559,3.3,1.559,3.3h10.868c.445,0,.178.458.178.458l-1.871,3.478a1.589,1.589,0,0,1-1.336.778h-1.024c-1.024-.092-.668-.87-.668-.87l.624-1.1H289.092l-1.514,2.792c-1.381,2.7,1.96,2.7,1.96,2.7h19.687c3.073,0,4.632-3.021,4.632-3.021l2.984-5.538c1.6-2.975-1.737-2.975-1.737-2.975H303.835l1.915-3.478a2.361,2.361,0,0,1,1.915-1.465h.891c.98,0,.579.732.579.732L308.289,353h11.625l1.6-3.112c1.514-2.7-1.693-2.7-1.693-2.7Z" transform="translate(-208.874 -347.184)" fill="#0f313d" fill-rule="evenodd"/>
  <path id="Path_13" data-name="Path 13" d="M261.476,350.708c1.336,0,.891.824.891.824l-6.057,11.35a2.276,2.276,0,0,1-1.96,1.144h-1.514c-1.648,0-1.2-1.007-1.2-1.007l6.057-11.167a1.862,1.862,0,0,1,1.47-1.144Zm-8.685-3.524c-3.563,0-5.434,3.524-5.434,3.524l-6.993,13.181c-1.782,3.3,1.425,3.3,1.425,3.3h19.776c3.3,0,5.078-3.3,5.078-3.3l7.037-13.181c1.915-3.524-1.425-3.524-1.425-3.524Z" transform="translate(-190.541 -347.184)" fill="#0f313d" fill-rule="evenodd"/>
  <path id="Path_14" data-name="Path 14" d="M201.214,367.184s3.474,0,4.81-2.7l2.45-4.394a2.617,2.617,0,0,0-.624-2.975,5.694,5.694,0,0,0,3.341-2.151l2.717-5.126c.891-2.654-2.539-2.654-2.539-2.654H189.1l-9,16.842H159.48v3.158Zm-9.532-3.158,2.583-4.989h5.256c1.381.046.624,1.465.624,1.465l-1.292,2.471a2.05,2.05,0,0,1-1.693,1.053Zm12.338-13.318c1.247.183.757,1.419.757,1.419l-1.2,2.38a2.85,2.85,0,0,1-2.093,1.1h-5.3l2.539-4.9Z" transform="translate(-159.48 -347.184)" fill="#0f313d" fill-rule="evenodd"/>
</svg>
