<svg xmlns="http://www.w3.org/2000/svg" width="53.031" height="50.505" viewBox="0 0 53.031 50.505">
  <g id="Group_1954" data-name="Group 1954" transform="translate(-1404.907 -4537.624)">
    <path id="Path_51" data-name="Path 51" d="M-5.1-35.632A11.928,11.928,0,0,1,3.718-32.1a11.954,11.954,0,0,1,3.51,8.78,20.626,20.626,0,0,1-.664,5.25Q5.9-15.539,4-10.289L-4.915,14.873H-16.867L-9.847-12.1a11.851,11.851,0,0,1-5.787-4.254,11.5,11.5,0,0,1-2.182-6.969,11.714,11.714,0,0,1,3.6-8.87A12.664,12.664,0,0,1-5.1-35.632Z" transform="translate(1450.71 4573.256)" fill="#d3dbde"/>
    <path id="Path_52" data-name="Path 52" d="M-5.1-35.632A11.928,11.928,0,0,1,3.718-32.1a11.954,11.954,0,0,1,3.51,8.78,20.626,20.626,0,0,1-.664,5.25Q5.9-15.539,4-10.289L-4.915,14.873H-16.867L-9.847-12.1a11.851,11.851,0,0,1-5.787-4.254,11.5,11.5,0,0,1-2.182-6.969,11.714,11.714,0,0,1,3.6-8.87A12.664,12.664,0,0,1-5.1-35.632Z" transform="translate(1422.723 4573.256)" fill="#d3dbde"/>
  </g>
</svg>
