<svg xmlns="http://www.w3.org/2000/svg" width="16.253" height="16.254" viewBox="0 0 16.253 16.254">
  <path id="Path_22676" data-name="Path 22676" d="M15.87,3.23H14.516V1.875h-.9V3.23H6.39V1.875h-.9V3.23H4.133A2.26,2.26,0,0,0,1.875,5.487V15.871a2.26,2.26,0,0,0,2.258,2.258H15.87a2.26,2.26,0,0,0,2.258-2.258V5.487A2.261,2.261,0,0,0,15.87,3.23ZM17.224,15.87a1.356,1.356,0,0,1-1.354,1.354H4.133A1.356,1.356,0,0,1,2.778,15.87V7.744H17.224Zm0-9.029H2.778V5.487A1.356,1.356,0,0,1,4.133,4.132H5.487v.9h.9v-.9h7.223v.9h.9v-.9H15.87a1.355,1.355,0,0,1,1.354,1.354Z" transform="translate(-1.875 -1.875)" fill="#fff"/>
</svg>
