<svg xmlns="http://www.w3.org/2000/svg" width="36.76" height="34.599" viewBox="0 0 36.76 34.599">
  <g id="Group_6020" data-name="Group 6020" transform="translate(-2.5 -5.3)">
    <g id="Group_806" data-name="Group 806" transform="translate(2.5 5.3)">
      <path id="Path_914" data-name="Path 914" d="M38.454,12.421a3.724,3.724,0,0,0-2.9-1.432H11.982l-.735-2.864A3.72,3.72,0,0,0,7.647,5.3H3.7a1.2,1.2,0,1,0,0,2.4H7.647a1.279,1.279,0,0,1,1.238.968l4.722,18.809a3.72,3.72,0,0,0,3.6,2.825H32.649a3.687,3.687,0,0,0,3.6-2.825l2.9-11.92A3.548,3.548,0,0,0,38.454,12.421ZM36.79,15.014l-2.9,11.92a1.279,1.279,0,0,1-1.238.968H17.207a1.279,1.279,0,0,1-1.238-.968L12.6,13.427h22.95a1.284,1.284,0,0,1,1.006.5A1.214,1.214,0,0,1,36.79,15.014Z" transform="translate(-2.5 -5.3)"/>
      <path id="Path_915" data-name="Path 915" d="M36.225,73.9a4.025,4.025,0,1,0,4.025,4.025A4.047,4.047,0,0,0,36.225,73.9Zm0,5.612a1.587,1.587,0,1,1,1.587-1.587A1.62,1.62,0,0,1,36.225,79.512Z" transform="translate(-20.706 -47.351)"/>
      <path id="Path_916" data-name="Path 916" d="M70.625,73.9a4.025,4.025,0,1,0,4.025,4.025A4.047,4.047,0,0,0,70.625,73.9Zm0,5.612a1.587,1.587,0,1,1,1.587-1.587A1.62,1.62,0,0,1,70.625,79.512Z" transform="translate(-41.792 -47.351)"/>
    </g>
  </g>
</svg>
