<svg xmlns="http://www.w3.org/2000/svg" width="961.751" height="961.751" viewBox="0 0 961.751 961.751">
  <g id="Group_6338" data-name="Group 6338" transform="matrix(0.259, -0.966, 0.966, 0.259, -240.195, 496.506)" opacity="0.27" style="isolation: isolate">
    <circle id="Ellipse_363" data-name="Ellipse 363" cx="392.133" cy="392.133" r="392.133" transform="translate(-190.408 300.322)" fill="none" stroke="#4e81ee" stroke-miterlimit="10" stroke-width="1"/>
    <circle id="Ellipse_364" data-name="Ellipse 364" cx="372.408" cy="372.408" r="372.408" transform="translate(-174.057 310.201)" fill="none" stroke="#4e81ee" stroke-miterlimit="10" stroke-width="1"/>
    <circle id="Ellipse_365" data-name="Ellipse 365" cx="352.683" cy="352.683" r="352.683" transform="translate(-157.706 320.08)" fill="none" stroke="#4e81ee" stroke-miterlimit="10" stroke-width="1"/>
    <circle id="Ellipse_366" data-name="Ellipse 366" cx="332.959" cy="332.959" r="332.959" transform="translate(-141.355 329.959)" fill="none" stroke="#4e81ee" stroke-miterlimit="10" stroke-width="1"/>
    <circle id="Ellipse_367" data-name="Ellipse 367" cx="313.234" cy="313.234" r="313.234" transform="translate(-125.004 339.838)" fill="none" stroke="#4e81ee" stroke-miterlimit="10" stroke-width="1"/>
    <circle id="Ellipse_368" data-name="Ellipse 368" cx="293.509" cy="293.509" r="293.509" transform="translate(-230.229 643.226) rotate(-45)" fill="none" stroke="#4e81ee" stroke-miterlimit="10" stroke-width="1"/>
    <circle id="Ellipse_369" data-name="Ellipse 369" cx="273.784" cy="273.784" r="273.784" transform="translate(-205.707 633.38) rotate(-45)" fill="none" stroke="#4e81ee" stroke-miterlimit="10" stroke-width="1"/>
    <circle id="Ellipse_370" data-name="Ellipse 370" cx="254.059" cy="254.059" r="254.059" transform="translate(-75.951 369.475)" fill="none" stroke="#4e81ee" stroke-miterlimit="10" stroke-width="1"/>
    <circle id="Ellipse_371" data-name="Ellipse 371" cx="234.334" cy="234.334" r="234.334" transform="translate(-156.665 613.688) rotate(-45)" fill="none" stroke="#4e81ee" stroke-miterlimit="10" stroke-width="1"/>
    <circle id="Ellipse_372" data-name="Ellipse 372" cx="214.609" cy="214.609" r="214.609" transform="translate(-132.143 603.842) rotate(-45)" fill="none" stroke="#4e81ee" stroke-miterlimit="10" stroke-width="1"/>
    <circle id="Ellipse_373" data-name="Ellipse 373" cx="194.885" cy="194.885" r="194.885" transform="translate(-26.898 399.111)" fill="none" stroke="#4e81ee" stroke-miterlimit="10" stroke-width="1"/>
    <circle id="Ellipse_374" data-name="Ellipse 374" cx="175.16" cy="175.16" r="175.16" transform="translate(-83.101 584.15) rotate(-45)" fill="none" stroke="#4e81ee" stroke-miterlimit="10" stroke-width="1"/>
    <circle id="Ellipse_375" data-name="Ellipse 375" cx="155.435" cy="155.435" r="155.435" transform="translate(-58.579 574.304) rotate(-45)" fill="none" stroke="#4e81ee" stroke-miterlimit="10" stroke-width="1"/>
    <circle id="Ellipse_376" data-name="Ellipse 376" cx="135.71" cy="135.71" r="135.71" transform="translate(22.155 428.748)" fill="none" stroke="#4e81ee" stroke-miterlimit="10" stroke-width="1"/>
    <circle id="Ellipse_377" data-name="Ellipse 377" cx="115.985" cy="115.985" r="115.985" transform="translate(38.506 438.627)" fill="none" stroke="#4e81ee" stroke-miterlimit="10" stroke-width="1"/>
    <circle id="Ellipse_378" data-name="Ellipse 378" cx="96.26" cy="96.26" r="96.26" transform="translate(40.915 624.689) rotate(-80.951)" fill="none" stroke="#4e81ee" stroke-miterlimit="10" stroke-width="1"/>
    <circle id="Ellipse_379" data-name="Ellipse 379" cx="76.535" cy="76.535" r="76.535" transform="translate(71.208 458.385)" fill="none" stroke="#4e81ee" stroke-miterlimit="10" stroke-width="1"/>
    <circle id="Ellipse_380" data-name="Ellipse 380" cx="56.811" cy="56.811" r="56.811" transform="translate(87.559 468.263)" fill="none" stroke="#4e81ee" stroke-miterlimit="10" stroke-width="1"/>
    <circle id="Ellipse_381" data-name="Ellipse 381" cx="37.086" cy="37.086" r="37.086" transform="translate(97.866 545.071) rotate(-79.681)" fill="none" stroke="#4e81ee" stroke-miterlimit="10" stroke-width="1"/>
    <circle id="Ellipse_382" data-name="Ellipse 382" cx="17.361" cy="17.361" r="17.361" transform="translate(115.694 516.426) rotate(-71.732)" fill="none" stroke="#4e81ee" stroke-miterlimit="10" stroke-width="1"/>
  </g>
</svg>
