<svg id="Group_7" data-name="Group 7" xmlns="http://www.w3.org/2000/svg" width="81.847" height="31.884" viewBox="0 0 81.847 31.884">
  <path id="Path_15" data-name="Path 15" d="M361.915,377.409v0a3.036,3.036,0,0,0-5.966,0,2.724,2.724,0,0,0,2.789,2.464c-.243.676-.5,1.22-.5,1.22,1.41,0,3.658-1.5,3.658-3.55.01-.073.015-.021.018-.1,0-.013,0-.023,0-.036Z" transform="translate(-287.486 -372.357)" fill="#0f313d" fill-rule="evenodd"/>
  <path id="Path_16" data-name="Path 16" d="M290.139,395.261s-4.3-4.705-18.5-4.705c-5.38,0-5.326-.452-16.848,1.36-12.854,2.021-26.121,6.077-33.545-.154a8.8,8.8,0,0,1-2.692-6.583c0-5.423,2.754-8.173,5.331-10.336,2.772-2.33,7.815-3.38,9.621-3.38,1.079,0,2.3.295,1.767.74-.572.478-.956.517-.956,1.916,0,1.126,1.155,2.46,3.383,2.46,1.59,0,3.929-1.261,3.929-3.228a3.674,3.674,0,0,0-1.528-3.066c-1.822-1.527-5.24-2.2-8.209-2.2-5.375,0-12.247,2.031-16.264,5.4-2.808,2.356-6.129,6.7-6.129,11.378,0,6.232,2.223,8.527,3.628,9.709,1.481,1.242,4.439,3.905,13.148,3.905,10.113,0,17.1-3.479,29.657-3.479,4.306,0,14.563.81,19.515,4.967.794-.666,9.58-4.707,14.687-4.707Z" transform="translate(-209.504 -368.085)" fill="#0f313d" fill-rule="evenodd"/>
  <path id="Path_17" data-name="Path 17" d="M303.825,383.59c0-1.486.377-3.612,1.22-4.311a2.694,2.694,0,0,1,2.163-.785c1.475,0,2.614,1.321,2.079,1.836a4.757,4.757,0,0,0-1.6,3.9c0,1.572,2.153,3.269,2.153,6.8,0,2.886-3.054,4.59-5.426,4.59-2.253,0-3.218-.306-4.431-1.311a3.305,3.305,0,0,1-1.286-2.959s-5.58,4.28-9.443,4.253a2.183,2.183,0,0,1-2.39-2.083c0-2.225,3.029-4.41,3.029-5.854,0-1.177-.523-1.241-.937-1.241-2.733,0-6.409,8.95-6.409,8.95l-4.967.021s1.077-2.3.769-2.193a9.1,9.1,0,0,1-6,2.443c-1.577,0-1.946-.944-1.946-1.773,0-2.009,4.11-7,1.473-7-3.11,0-6.025,8.489-6.025,8.489l-5.4.017,3.817-7.614s-3.87,1.009-3.952,1.277a14.488,14.488,0,0,1-3.469,4.7,8.415,8.415,0,0,1-5.962,2.351c-2.951,0-4.454-1.524-4.454-3.882a7.839,7.839,0,0,1,3.163-6.019,11.952,11.952,0,0,1,6.879-2.7,4.992,4.992,0,0,1,3.118.95,3.408,3.408,0,0,1,1.2,2.369s.414.2,2.243-.477a7.485,7.485,0,0,0,3.375-2.614l5.482-.027-.091.939c.67,0,1.389-1.094,4.128-1.094a2.241,2.241,0,0,1,2.425,2.116c0,2.625-4.638,6.976-2.531,6.976.74,0,1.458-.611,2.347-1.347,1.587-1.312,5.24-7.76,5.24-7.76l5.389.018s-.238.908-.238.89a6.535,6.535,0,0,1,3.976-1.026,3.675,3.675,0,0,1,1.743.724,2.562,2.562,0,0,1,.861,2.095c0,2.055-4.552,6.469-2.445,6.469,1.121,0,3.279-1.22,4.777-2.461,1.266-1.047,6.343-5.886,6.343-6.641Zm.091,2.321s-3.112,3.439-3.67,3.9c-.473.393.967-.5,2.044.393a1.519,1.519,0,0,1,.118,2.359c-.527.437-.369.658,0,.658a2.136,2.136,0,0,0,1.72-2.282c0-3.1-.21-5.029-.21-5.029ZM256.345,386s-5.24,2.016-5.24,5.988c0,.368.266,1.164,1.432,1.164,1.84,0,5.159-3.434,5.159-4.309,0-.364-.816.153-1.634-.523-.975-.807.283-2.319.283-2.319Z" transform="translate(-227.993 -374.576)" fill="#0f313d" fill-rule="evenodd"/>
</svg>
