<svg xmlns="http://www.w3.org/2000/svg" width="56.079" height="110.997" viewBox="0 0 56.079 110.997">
  <g id="Group_6119" data-name="Group 6119" transform="translate(-919 -2524.744)">
    <g id="Group_6116" data-name="Group 6116" transform="translate(923 2524.744)">
      <path id="Path_22649" data-name="Path 22649" d="M251.987,156.945a8.379,8.379,0,0,0-7.777-6.717,8.085,8.085,0,0,1-5.268-2.4l-14.968-14.968a8.036,8.036,0,0,1-2.611-5.19,8.423,8.423,0,0,0-2.481-5.658,8.126,8.126,0,0,0-7.219-2.285,1.406,1.406,0,0,0-.586,2.341l1.9,1.923.028.028v3.93h-3.93l-.028-.028-1.923-1.9a1.4,1.4,0,0,0-2.286.418c-.613,1.226-.139,4.822,1.951,7.08a8.279,8.279,0,0,0,5.881,2.787,8.065,8.065,0,0,1,4.758,1.845c2.815,2.787.139.112,15.609,15.581a8.026,8.026,0,0,1,2.4,5.268,8.378,8.378,0,0,0,6.717,7.777A8.275,8.275,0,0,0,249.7,164.5,8.424,8.424,0,0,0,251.987,156.945Zm-8.195,5.826a4.187,4.187,0,1,1,2.954-1.226A4.175,4.175,0,0,1,243.792,162.771Z" transform="translate(-204.586 -119.566)" fill="#a5d9f5"/>
      <path id="Path_22650" data-name="Path 22650" d="M249.7,172.372a8.274,8.274,0,0,1-7.553,2.285,8.377,8.377,0,0,1-6.717-7.777,8.023,8.023,0,0,0-2.4-5.268c-15.469-15.47-12.794-12.794-15.609-15.581a8.062,8.062,0,0,0-4.757-1.845,8.279,8.279,0,0,1-5.881-2.788c-2.09-2.258-2.564-5.853-1.951-7.08a1.4,1.4,0,0,1,2.285-.418l1.923,1.9.028.028H213l27.836,27.684a4.178,4.178,0,1,0,5.909,5.909Z" transform="translate(-204.586 -127.439)" fill="#81c8ee"/>
      <path id="Path_22651" data-name="Path 22651" d="M271.372,142.6l-14.243,14.215-1.979-1.951-1.979-1.951,14.243-14.271Z" transform="translate(-232.082 -130.36)" fill="#b7e0f6"/>
      <path id="Path_22652" data-name="Path 22652" d="M273.953,145.178l-14.243,14.215-1.979-1.951L271.974,143.2Z" transform="translate(-234.663 -132.94)" fill="#a4d9f5"/>
      <path id="Path_22653" data-name="Path 22653" d="M228.642,181.107l-3.93-3.958-3.958-3.93a1.347,1.347,0,0,0-1.951,0c-4.683,4.683-8.278,8.25-12.961,12.961a4.155,4.155,0,0,0,0,5.909l1.951,1.979,1.979,1.951a4.155,4.155,0,0,0,5.909,0c4.71-4.683,8.278-8.278,12.961-12.961A1.347,1.347,0,0,0,228.642,181.107Z" transform="translate(-204.599 -149.693)" fill="#e50027"/>
      <path id="Path_22654" data-name="Path 22654" d="M293.431,121.935l-.976-.975-.975-.976a1.428,1.428,0,0,0-1.561-.306c-3.93,1.784-6.941,3.15-10.842,4.934a1.408,1.408,0,0,0-.418,2.258l3.93,3.958,3.958,3.93a1.408,1.408,0,0,0,2.258-.418c1.784-3.9,3.15-6.912,4.934-10.842A1.42,1.42,0,0,0,293.431,121.935Z" transform="translate(-246.281 -119.565)" fill="#cae8f9"/>
      <path id="Path_22655" data-name="Path 22655" d="M232.794,188.728c-4.683,4.683-8.251,8.278-12.961,12.961a4.155,4.155,0,0,1-5.909,0l-1.979-1.951,16.919-16.919,3.93,3.958A1.347,1.347,0,0,1,232.794,188.728Z" transform="translate(-208.751 -155.363)" fill="#c1001f"/>
      <path id="Path_22656" data-name="Path 22656" d="M299.381,125.315c-1.784,3.93-3.15,6.94-4.934,10.842a1.408,1.408,0,0,1-2.258.418l-3.958-3.93,9.867-9.867.976.975A1.419,1.419,0,0,1,299.381,125.315Z" transform="translate(-251.925 -121.383)" fill="#b7e0f6"/>
      <path id="Path_22657" data-name="Path 22657" d="M249.5,171.008l-3.93-3.93-3.958-3.958a4.314,4.314,0,0,0-5.909,0,4.155,4.155,0,0,0,0,5.909l7.888,7.888a4.155,4.155,0,0,0,2.954,1.227,4.178,4.178,0,0,0,2.955-7.135Z" transform="translate(-221.498 -143.552)" fill="#fd003a"/>
      <path id="Path_22658" data-name="Path 22658" d="M257.494,180.65a4.178,4.178,0,0,1-7.135,2.954l-3.93-3.93,5.909-5.909,3.93,3.93A4.177,4.177,0,0,1,257.494,180.65Z" transform="translate(-228.267 -150.239)" fill="#e50027"/>
    </g>
    <g id="Group_6118" data-name="Group 6118" transform="translate(3.671 10)">
      <path id="Path_22659" data-name="Path 22659" d="M242.529,286.158a3.75,3.75,0,0,0-3.739-3.739,3.739,3.739,0,1,0,0-7.477H223.462c2.281-6.842,2.243-9.147,2.243-13.335a5.59,5.59,0,0,0-3.739-5.271A5.181,5.181,0,0,0,220.1,256h-1.122a1.933,1.933,0,0,0-1.795,1.421l-1.047,4.075c-1.57,6.094-6.617,13.447-12.861,13.447v26.17l8.337,2.767a18.639,18.639,0,0,0,5.907.972h17.534a3.739,3.739,0,0,0,0-7.477h3.739a3.739,3.739,0,1,0,0-7.477A3.75,3.75,0,0,0,242.529,286.158Z" transform="translate(728.88 2317.151)" fill="#fedbab"/>
      <path id="Path_22660" data-name="Path 22660" d="M281.226,304.851a3.739,3.739,0,1,0,0-7.477h3.739a3.739,3.739,0,1,0,0-7.477,3.739,3.739,0,1,0,0-7.477,3.739,3.739,0,1,0,0-7.477H269.637c2.281-6.842,2.243-9.147,2.243-13.335a5.59,5.59,0,0,0-3.739-5.271,5.181,5.181,0,0,0-1.869-.337v48.851Z" transform="translate(682.704 2317.151)" fill="#fec478"/>
      <g id="Group_6117" data-name="Group 6117" transform="translate(915.329 2588.355)">
        <path id="Path_22661" data-name="Path 22661" d="M153.359,350.319H142.143a1.868,1.868,0,0,1-1.869-1.869V314.8a1.868,1.868,0,0,1,1.869-1.869h11.216a5.614,5.614,0,0,1,5.608,5.608v26.17A5.614,5.614,0,0,1,153.359,350.319Z" transform="translate(-140.274 -312.933)" fill="#1689fc"/>
        <circle id="Ellipse_323" data-name="Ellipse 323" cx="1.869" cy="1.869" r="1.869" transform="translate(7.477 26.17)" fill="#1689fc"/>
      </g>
    </g>
  </g>
</svg>
