<svg xmlns="http://www.w3.org/2000/svg" xmlns:xlink="http://www.w3.org/1999/xlink" width="716.229" height="633.546" viewBox="0 0 716.229 633.546">
  <defs>
    <linearGradient id="linear-gradient" x1="0.5" x2="0.5" y2="1" gradientUnits="objectBoundingBox">
      <stop offset="0" stop-color="#2f2fc2"/>
      <stop offset="1" stop-color="#4e81ee"/>
    </linearGradient>
  </defs>
  <g id="Customer_Interview" data-name="Customer Interview" transform="translate(-20.068 -40.75)" opacity="0.9">
    <path id="Path_22828" data-name="Path 22828" d="M441.14,461.576c-12.75,8.576-33.6-41.128-35.035-55s9.139-5.88,9.139-5.88-10.008-44.89-3.717-58.569,11.881,1.919,11.881,1.919,4.752-46.306,25.194-50.48,3.671,47.083,3.671,47.083,8.347-12.826,16.573-9.4-15.933,61.569-15.933,61.569,9.307-10.282,17.076-7.068S460.851,448.339,441.14,461.576Z" transform="translate(201.921 132.156)" fill="#404b7c"/>
    <path id="Path_22829" data-name="Path 22829" d="M429.273,455.177a.762.762,0,0,1-.746-.64c-.152-.883-14.791-88.972,8.347-154.731a.762.762,0,1,1,1.432.5c-23,65.377-8.439,153.086-8.286,153.969a.762.762,0,0,1-.625.883h-.122Z" transform="translate(211.259 135.249)" fill="#9ab3da"/>
    <path id="Path_22830" data-name="Path 22830" d="M430.13,370.923a.762.762,0,0,1-.442-.152c-14.471-10.556-16.436-36.695-16.527-37.807a.763.763,0,1,1,1.523-.107c0,.259,1.965,26.032,15.491,36.375,2.468-1.523,15.72-11.3,24.57-40.686a.793.793,0,0,1,1.523.442c-9.962,33.039-25.073,41.493-25.712,41.843A.761.761,0,0,1,430.13,370.923Z" transform="translate(205.681 150.287)" fill="#9ab3da"/>
    <path id="Path_22831" data-name="Path 22831" d="M430.98,395.772h-.228c-8.789-2.711-15.476-19.665-15.75-20.381a.762.762,0,0,1,1.417-.548c0,.168,6.5,16.512,14.44,19.36,1.66-1.219,10.3-8.241,16.938-27.129a.762.762,0,0,1,1.432.5c-7.616,21.447-17.441,27.845-17.852,28.119A.777.777,0,0,1,430.98,395.772Z" transform="translate(206.628 170.511)" fill="#9ab3da"/>
    <path id="Path_22832" data-name="Path 22832" d="M428.188,336.424h0a.777.777,0,0,1-.548-.259c-4.189-4.844-5.133-20.137-5.179-20.777a.763.763,0,0,1,1.523-.091c0,.152.868,14.06,4.3,19.208,2.056-2.193,8.82-9.871,11.226-18.919a.787.787,0,0,1,1.523.4c-2.94,11.089-11.851,19.8-12.186,20.244A.762.762,0,0,1,428.188,336.424Z" transform="translate(210.547 143.279)" fill="#9ab3da"/>
    <path id="Path_22833" data-name="Path 22833" d="M443.29,455.116c-14.623,2.62-13.709-49.46-9.612-62.316s10.328-1.66,10.328-1.66,8.622-43.61,19.5-53.313,9.764,6.321,9.764,6.321,22.224-39.1,41.935-34.836-15.08,43.077-15.08,43.077,12.369-8.1,18.279-1.858S480.32,398.8,480.32,398.8s12.308-5.438,17.9.411S465.849,451.064,443.29,455.116Z" transform="translate(215.049 140.352)" fill="#9ab3da"/>
    <path id="Path_22834" data-name="Path 22834" d="M438.919,448.73h-.183a.762.762,0,0,1-.548-.929c.213-.838,21.554-84.464,67.617-133.634a.762.762,0,1,1,1.112,1.036c-45.8,48.881-67.023,132.126-67.251,132.964A.762.762,0,0,1,438.919,448.73Z" transform="translate(218.765 142.915)" fill="#404b7c"/>
    <path id="Path_22835" data-name="Path 22835" d="M455.172,375.014a.762.762,0,0,1-.655-.381c-8.7-14.973-.259-38.873.091-39.894a.762.762,0,1,1,1.432.518c-.091.244-8.393,23.763-.457,38.172,2.849-.457,18.279-3.93,37.548-26.413a.762.762,0,1,1,1.158.99c-21.752,25.362-38.355,27.007-39.056,27.007h0Z" transform="translate(225.27 153.554)" fill="#404b7c"/>
    <path id="Path_22836" data-name="Path 22836" d="M445.377,396.258a.761.761,0,0,1-.5-.183c-6.733-5.834-6.093-23.427-6.017-24.174a.746.746,0,0,1,.792-.731.762.762,0,0,1,.731.792c0,.168-.67,17.091,5.21,22.711,1.98-.442,12.323-3.305,25.514-17.4a.762.762,0,1,1,1.112,1.036c-15.034,16.04-26.276,17.852-26.748,17.929h-.107Z" transform="translate(219.101 172.889)" fill="#404b7c"/>
    <path id="Path_22837" data-name="Path 22837" d="M466.285,345.005a.762.762,0,0,1-.731-.533c-1.813-5.925,3.29-19.8,3.5-20.411a.764.764,0,1,1,1.432.533c0,.137-4.676,12.734-3.671,18.614,2.711-1.142,11.638-5.316,17.243-12.353a.762.762,0,1,1,1.188.944c-6.916,8.667-18.279,12.978-18.705,13.161a.778.778,0,0,1-.259.046Z" transform="translate(232.893 147.979)" fill="#404b7c"/>
    <path id="Path_22838" data-name="Path 22838" d="M449.175,460.435a5.255,5.255,0,0,1-3.96.472c-22.194-5.727-56.665-54.41-50.663-59.833s17.289.64,17.852.914c-.853-.944-40.671-45.24-34.319-50.952s17.533,2.787,18.111,3.214c-.548-.716-20.092-26.322-18.279-38.218a4.859,4.859,0,0,1,8.683-2C427.774,367.472,444.91,439.673,449.175,460.435Z" transform="translate(186.97 141.964)" fill="#9ab3da"/>
    <path id="Path_22839" data-name="Path 22839" d="M422.662,375.379h-.183c-4.128-1.066-18.888-6.337-35.979-29.642a.763.763,0,1,1,1.234-.9c16.756,22.849,31.135,28.043,35.126,29.063a.762.762,0,0,1-.2,1.477Z" transform="translate(191.655 158.947)" fill="#404b7c"/>
    <path id="Path_22840" data-name="Path 22840" d="M428.037,399.515h-.168c-.457-.107-11.531-2.757-25.331-19.878a.764.764,0,1,1,1.188-.96c13.465,16.756,24.372,19.33,24.478,19.345a.762.762,0,0,1-.168,1.493Z" transform="translate(200.035 176.669)" fill="#404b7c"/>
    <path id="Path_22841" data-name="Path 22841" d="M404.474,345.06a.747.747,0,0,1-.366-.091c-3.869-2.133-11.044-6.718-15.644-13.45a.763.763,0,0,1,1.264-.853c4.433,6.474,11.379,10.922,15.126,12.978a.762.762,0,0,1-.381,1.417Z" transform="translate(192.692 151.52)" fill="#404b7c"/>
    <path id="Path_22842" data-name="Path 22842" d="M469.694,485.432H416.685a16.329,16.329,0,0,1-16.329-15.75l-2.285-64.113a5.621,5.621,0,0,1,5.605-5.819h79a5.621,5.621,0,0,1,5.605,5.819l-2.285,64.113a16.329,16.329,0,0,1-16.3,15.75Z" transform="translate(197.785 187.843)" fill="url(#linear-gradient)"/>
    <path id="Path_22843" data-name="Path 22843" d="M459.1,399.75H443.623c-1.188,5.179-.838,12.643,9.292,16.192a20.3,20.3,0,0,0,11.394.746l.4-11.12a5.621,5.621,0,0,0-5.606-5.819Z" transform="translate(221.372 187.843)" fill="url(#linear-gradient)"/>
    <path id="Path_22844" data-name="Path 22844" d="M436.736,420.507c-2.072-7.3,1.828-15.644,4.935-20.747h-17c-9.779,16.39-3.869,46.185,22.727,39.8,13.176-3.168,22.148-1.523,28.058,1.325L475.914,428C460.575,418.4,439.676,430.971,436.736,420.507Z" transform="translate(209.387 187.849)" fill="url(#linear-gradient)"/>
    <path id="Path_22845" data-name="Path 22845" d="M483.266,467.881c-12.948-28.439-36.147-.548-51.409-30.358-10.434-20.4-24.372-20.427-33.207-17.776l.5,14.014c27.266-10.663,26.078,33.907,49.277,30.465,12.4-1.874,19.437,4.722,23.29,11.242a16.314,16.314,0,0,0,11.546-7.586Z" transform="translate(198.089 197.672)" fill="url(#linear-gradient)"/>
    <path id="Path_22846" data-name="Path 22846" d="M408.108,438.54c-7.037,1.752-.381,17.517,5.712,13.328S413.439,437.214,408.108,438.54Z" transform="translate(201.457 208.079)" fill="url(#linear-gradient)"/>
    <path id="Path_22847" data-name="Path 22847" d="M446.119,431.571c-4.829,2.879,3.625,13.085,7.22,8.606S449.744,429.408,446.119,431.571Z" transform="translate(222.167 204.263)" fill="url(#linear-gradient)"/>
    <path id="Path_22848" data-name="Path 22848" d="M80.138,460.665c10.663,7.174,28.134-34.425,29.368-46.048s-7.616-4.92-7.616-4.92,8.378-37.594,3.046-49.033-9.947,1.6-9.947,1.6-3.976-38.766-21.1-42.255-3.046,39.422-3.046,39.422-6.992-10.663-13.877-7.875S70.313,403.1,70.313,403.1s-7.875-8.606-14.334-5.91S63.656,449.576,80.138,460.665Z" transform="translate(17.954 146.014)" fill="#404b7c"/>
    <path id="Path_22849" data-name="Path 22849" d="M75.325,455.431H75.2a.762.762,0,0,1-.625-.883c.122-.731,12.323-74.136-6.931-128.851a.762.762,0,0,1,1.432-.5c19.391,55.1,7.129,128.866,6.992,129.613A.762.762,0,0,1,75.325,455.431Z" transform="translate(24.883 148.598)" fill="#9ab3da"/>
    <path id="Path_22850" data-name="Path 22850" d="M82.831,384.9a.761.761,0,0,1-.366-.091c-.533-.289-13.237-7.388-21.584-35.035a.793.793,0,0,1,1.523-.442c7.342,24.372,18.279,32.506,20.457,33.953,11.226-8.667,12.841-30.1,12.856-30.312a.763.763,0,0,1,1.523.107c0,.929-1.721,22.849-13.877,31.744A.762.762,0,0,1,82.831,384.9Z" transform="translate(21.338 161.166)" fill="#9ab3da"/>
    <path id="Path_22851" data-name="Path 22851" d="M79.619,405.781a.777.777,0,0,1-.442-.107c-.35-.213-8.652-5.606-15-23.6a.762.762,0,1,1,1.432-.5c5.5,15.6,12.6,21.508,14.09,22.62,6.565-2.437,11.9-15.979,11.957-16.116a.762.762,0,0,1,1.417.548c-.228.609-5.849,14.852-13.267,17.136Z" transform="translate(23.042 178.035)" fill="#9ab3da"/>
    <path id="Path_22852" data-name="Path 22852" d="M77.394,356.049a.762.762,0,0,1-.533-.213c-.32-.3-7.814-7.616-10.282-17a.787.787,0,1,1,1.523-.4c1.965,7.4,7.418,13.709,9.261,15.674,2.788-4.372,3.488-15.766,3.488-15.887a.746.746,0,0,1,.807-.716.762.762,0,0,1,.716.807c0,.548-.823,13.374-4.356,17.472a.777.777,0,0,1-.548.259h0Z" transform="translate(24.323 155.276)" fill="#9ab3da"/>
    <path id="Path_22853" data-name="Path 22853" d="M85.311,455.25c12.186,2.193,11.485-41.4,8.058-52.171s-8.637-1.4-8.637-1.4-7.22-36.558-16.329-44.6-8.165,5.286-8.165,5.286-18.614-32.734-35.111-29.17,12.628,36.07,12.628,36.07S27.4,362.485,22.417,367.74s31.866,40.412,31.866,40.412-10.312-4.57-14.989.35S66.408,451.854,85.311,455.25Z" transform="translate(0 152.876)" fill="#9ab3da"/>
    <path id="Path_22854" data-name="Path 22854" d="M82.923,450.058a.762.762,0,0,1-.731-.579c-.183-.7-17.959-70.374-56.268-111.2a.762.762,0,1,1,1.112-1.036c38.6,41.127,56.467,111.2,56.634,111.943a.762.762,0,0,1-.548.929h-.2Z" transform="translate(2.937 154.992)" fill="#404b7c"/>
    <path id="Path_22855" data-name="Path 22855" d="M62.073,388.356h0c-.594,0-14.593-1.386-32.78-22.651a.762.762,0,1,1,1.158-.99c15.887,18.6,28.7,21.63,31.272,22.057,6.55-12.018-.366-31.577-.442-31.775a.762.762,0,1,1,1.432-.518c.3.853,7.388,20.914,0,33.511A.762.762,0,0,1,62.073,388.356Z" transform="translate(4.731 163.883)" fill="#404b7c"/>
    <path id="Path_22856" data-name="Path 22856" d="M67.363,406.145h-.122c-.4,0-9.84-1.523-22.468-15.05a.762.762,0,1,1,1.112-1.036c10.891,11.622,19.452,14.105,21.234,14.516,4.844-4.707,4.28-18.736,4.28-18.873a.762.762,0,0,1,.731-.792.731.731,0,0,1,.792.731c0,.625.609,15.415-5.072,20.35A.761.761,0,0,1,67.363,406.145Z" transform="translate(12.8 180.078)" fill="#404b7c"/>
    <path id="Path_22857" data-name="Path 22857" d="M46.005,363.24a.791.791,0,0,1-.274,0c-.4-.152-9.9-3.762-15.72-11.059a.762.762,0,1,1,1.188-.944c4.57,5.758,11.836,9.139,14.242,10.236.746-4.951-3.046-15.232-3.046-15.369a.764.764,0,1,1,1.432-.533c.183.487,4.478,12.186,2.94,17.167A.762.762,0,0,1,46.005,363.24Z" transform="translate(5.094 159.234)" fill="#404b7c"/>
    <path id="Path_22858" data-name="Path 22858" d="M102.606,480.645H58.189a13.709,13.709,0,0,1-13.709-13.191l-1.858-53.679a4.707,4.707,0,0,1,4.692-4.874h66.139a4.707,4.707,0,0,1,4.692,4.874l-1.828,53.679A13.709,13.709,0,0,1,102.606,480.645Z" transform="translate(11.799 192.631)" fill="url(#linear-gradient)"/>
    <path id="Path_22859" data-name="Path 22859" d="M93.711,408.9H80.748c-1.005,4.341-.7,10.663,7.784,13.557a17,17,0,0,0,9.535.624l.335-9.307a4.707,4.707,0,0,0-4.692-4.874Z" transform="translate(31.54 192.631)" fill="url(#linear-gradient)"/>
    <path id="Path_22860" data-name="Path 22860" d="M74.989,426.28c-1.736-6.093,1.523-13.1,4.128-17.38H64.875c-8.2,13.709-3.229,38.675,19.025,33.313,11.028-2.65,18.553-1.249,23.488,1.112l.381-10.785C94.943,424.559,77.472,435.054,74.989,426.28Z" transform="translate(21.503 192.631)" fill="url(#linear-gradient)"/>
    <path id="Path_22861" data-name="Path 22861" d="M113.941,465.945c-10.845-23.823-30.267-.457-43.047-25.423-8.743-17.076-20.457-17.106-27.814-14.882l.411,11.729c22.849-8.926,21.843,28.393,41.265,25.469,10.373-1.523,16.268,3.96,19.5,9.414a13.709,13.709,0,0,0,9.688-6.306Z" transform="translate(12.041 200.857)" fill="url(#linear-gradient)"/>
    <path id="Path_22862" data-name="Path 22862" d="M51.01,441.383c-5.895,1.523-.32,14.669,4.783,11.165S55.473,440.271,51.01,441.383Z" transform="translate(14.865 209.577)" fill="url(#linear-gradient)"/>
    <path id="Path_22863" data-name="Path 22863" d="M82.836,435.546c-4.037,2.407,3.046,10.952,6.093,7.205S85.9,433.734,82.836,435.546Z" transform="translate(32.208 206.381)" fill="url(#linear-gradient)"/>
    <path id="Path_22864" data-name="Path 22864" d="M323.05,440.257H103.7S67.451,335.474,69.736,275.489c1.386-36.421,14.379-61.8,38.218-74.639,15.4-8.378,35.354-11.424,59.635-8.881,62.8,6.6,89,74.3,93.085,108.577h56.284a21.862,21.862,0,0,1,3.443.274h.152a19.01,19.01,0,0,1,3.382.868,18.571,18.571,0,0,1,2,.838h0c6.4,3.2,12.369,11.12,13.039,30.206C339.928,361.7,334.81,397.607,323.05,440.257Z" transform="translate(25.934 78.668)" fill="#404b7c"/>
    <path id="Path_22865" data-name="Path 22865" d="M217.133,403.271h-.183a.762.762,0,0,1-.564-.914c4.859-19.924,9.718-64.6,10.815-85.423.2-3.869.244-8.043.289-12.475.168-17.228.35-36.756,11.12-41.128a.762.762,0,1,1,.579,1.4c-9.825,4.052-10.023,23.047-10.175,39.8,0,4.448-.091,8.637-.289,12.536-1.081,20.868-5.971,65.7-10.845,85.7a.761.761,0,0,1-.746.5Z" transform="translate(102.711 116.417)" fill="#9ab3da"/>
    <path id="Path_22866" data-name="Path 22866" d="M166.2,361l26.718,139.407a5.316,5.316,0,0,1-5.225,6.306h0a5.317,5.317,0,0,1-5.1-3.824L141.07,361Z" transform="translate(63.313 167.568)" fill="#9ab3da"/>
    <path id="Path_22867" data-name="Path 22867" d="M112.53,361,85.812,500.407a5.316,5.316,0,0,0,5.225,6.306h0a5.317,5.317,0,0,0,5.1-3.824L137.663,361Z" transform="translate(34.351 167.568)" fill="#9ab3da"/>
    <path id="Path_22868" data-name="Path 22868" d="M234.953,361l26.718,139.407a5.316,5.316,0,0,1-5.225,6.306h0a5.317,5.317,0,0,1-5.1-3.824L209.82,361Z" transform="translate(99.286 167.568)" fill="#404b7c"/>
    <path id="Path_22869" data-name="Path 22869" d="M181.28,361,154.562,500.407a5.316,5.316,0,0,0,5.225,6.306h0a5.317,5.317,0,0,0,5.1-3.824L206.413,361Z" transform="translate(70.324 167.568)" fill="#404b7c"/>
    <path id="Path_22870" data-name="Path 22870" d="M311.337,354.67,302.2,371.928H97.915L91.99,354.67Z" transform="translate(37.632 164.256)" fill="#9ab3da"/>
    <path id="Path_22871" data-name="Path 22871" d="M124.5,367.023H104.122a.762.762,0,1,1,0-1.523H124.5a.762.762,0,1,1,0,1.523Z" transform="translate(43.582 169.922)" fill="#404b7c"/>
    <path id="Path_22872" data-name="Path 22872" d="M162.9,367.023H144.622a.762.762,0,0,1,0-1.523H162.9a.762.762,0,0,1,0,1.523Z" transform="translate(64.773 169.922)" fill="#404b7c"/>
    <path id="Path_22873" data-name="Path 22873" d="M278.665,354.67,272.1,371.928H159.167c-1.295-4.3-2.955-10.16-4.707-17.258Z" transform="translate(70.319 164.256)" fill="#404b7c"/>
    <path id="Path_22874" data-name="Path 22874" d="M209.867,109.494s-.122-.228-.381-.64c-1.8-2.864-10.343-14.288-30.846-12.186-23.412,2.483-32.552,31.044-25.316,42.849s-6.337,17.2-20.381,23.108-25.316,25.133-11.988,42.468,81.3,21.325,85.682.762-9.52-37.137-7.86-53.709Z" transform="translate(49.672 29.124)" fill="#404b7c"/>
    <path id="Path_22875" data-name="Path 22875" d="M173.862,137.371l-2.178,11.15-2.209,11.3L157.67,158.3l2.041-21.6.625-6.58Z" transform="translate(71.999 46.762)" fill="#ecbdbb"/>
    <path id="Path_22876" data-name="Path 22876" d="M173.161,137.371l-2.178,11.15c-7.053-.914-10.388-6.7-11.973-11.82l.625-6.58Z" transform="translate(72.7 46.762)" fill="#404b7c"/>
    <path id="Path_22877" data-name="Path 22877" d="M140.67,150.061s27.418-11.607,55.8,2.285l-5.331,16.375-46.642-1.706Z" transform="translate(63.104 54.819)" fill="url(#linear-gradient)"/>
    <path id="Path_22878" data-name="Path 22878" d="M120.955,181.008s24.753-25.514,57.5-24.753,51.79,27.038,51.79,27.038S247,209.569,246.622,222.517s-9.52,48.744-9.52,48.744a170.6,170.6,0,0,0,11.044,30.846c7.235,14.852,44.936,42.27,51.028,48.363s11.044,65.7-69.307,65.7-111.2-21.143-111.2-72.933S120.955,181.008,120.955,181.008Z" transform="translate(51.592 60.429)" fill="url(#linear-gradient)"/>
    <path id="Path_22879" data-name="Path 22879" d="M187.821,162.152a.762.762,0,0,1-.289,0,61.737,61.737,0,0,0-22.422-4.813,65.988,65.988,0,0,0-19.954,2.711.791.791,0,0,1-.427-1.523,67.4,67.4,0,0,1,20.427-2.772A63.276,63.276,0,0,1,188.1,160.7a.762.762,0,0,1-.274,1.447Z" transform="translate(64.925 60.169)" fill="url(#linear-gradient)"/>
    <path id="Path_22880" data-name="Path 22880" d="M241.254,417.33,238.6,427.6l-4.966,19.178H219.67l4.692-21.706,1.66-7.738Z" transform="translate(104.44 197.042)" fill="#ecbdbb"/>
    <path id="Path_22881" data-name="Path 22881" d="M239.643,417.33l-2.65,10.267-14.242-2.529,1.66-7.738Z" transform="translate(106.051 197.042)" fill="#404b7c"/>
    <path id="Path_22882" data-name="Path 22882" d="M285.1,468.882H213.008a57.69,57.69,0,0,1,.152-6.093,85.073,85.073,0,0,1,7.967-29.46c8.9,2.285,19.3.259,19.3.259s39.863,20.3,41.63,23.108a21.417,21.417,0,0,1,1.98,6.093C284.707,465.9,285.1,468.882,285.1,468.882Z" transform="translate(100.942 205.414)" fill="#4e81ee"/>
    <path id="Path_22883" data-name="Path 22883" d="M285.1,458.763H213.008a57.69,57.69,0,0,1,.152-6.093h70.876C284.707,455.777,285.1,458.763,285.1,458.763Z" transform="translate(100.942 215.533)" fill="#404b7c"/>
    <path id="Path_22884" data-name="Path 22884" d="M227.645,284.731c-25.728-1.858-43.824,25.728-31.028,48.119,3.229,5.651,7.616,9.9,12.186,11.729,15.232,6.093,47.22,4.067,47.22,4.067L233.174,490.307H261.1s54.334-148.257,56.863-167.556-10.4-31.226-33.77-33.511C270.57,287.914,245.817,286.056,227.645,284.731Z" transform="translate(90.174 127.614)" fill="#404b7c"/>
    <path id="Path_22885" data-name="Path 22885" d="M238.833,472.938h-.152a.762.762,0,0,1-.609-.9l30.693-157.61-67.342-7.906a.762.762,0,0,1-.67-.853.777.777,0,0,1,.838-.67l68.165,8a.762.762,0,0,1,.655.9L239.564,472.314a.762.762,0,0,1-.731.624Z" transform="translate(94.538 138.265)" fill="#9ab3da"/>
    <path id="Path_22886" data-name="Path 22886" d="M235.428,336.385a.746.746,0,0,1-.335-.076.762.762,0,0,1-.335-1.021c.487-.99,12.277-24.22,29.886-30.084a.763.763,0,1,1,.487,1.447c-17.015,5.667-28.942,29.079-28.942,29.322A.761.761,0,0,1,235.428,336.385Z" transform="translate(112.292 138.352)" fill="#9ab3da"/>
    <path id="Path_22887" data-name="Path 22887" d="M190.409,417.33l-2.589,9.992-5.027,19.452H168.84l4.539-21.127,1.8-8.317Z" transform="translate(77.843 197.042)" fill="#ecbdbb"/>
    <path id="Path_22888" data-name="Path 22888" d="M188.85,417.33l-2.589,9.992-14.44-1.676,1.8-8.317Z" transform="translate(79.403 197.042)" fill="#404b7c"/>
    <path id="Path_22889" data-name="Path 22889" d="M234.273,468.882H162.178a57.69,57.69,0,0,1,.152-6.093,85.073,85.073,0,0,1,7.967-29.46c8.9,2.285,19.3.259,19.3.259s39.863,20.3,41.63,23.108a21.415,21.415,0,0,1,1.98,6.093C233.877,465.9,234.273,468.882,234.273,468.882Z" transform="translate(74.346 205.414)" fill="#4e81ee"/>
    <path id="Path_22890" data-name="Path 22890" d="M234.273,458.763H162.178a57.69,57.69,0,0,1,.152-6.093h70.876C233.877,455.777,234.273,458.763,234.273,458.763Z" transform="translate(74.346 215.533)" fill="#404b7c"/>
    <path id="Path_22891" data-name="Path 22891" d="M267.487,323.238c-2.529,19.3-56.863,167.556-56.863,167.556H182.7l22.849-141.661a221.582,221.582,0,0,1-25.423,0c-7.906-.533-16.04-1.676-21.8-3.976-15.232-6.093-28.439-39.1-3.564-61.448,0,0,55.69,3.823,78.965,6.093S270.031,303.954,267.487,323.238Z" transform="translate(63.218 127.127)" fill="#9ab3da"/>
    <path id="Path_22892" data-name="Path 22892" d="M210.093,310.75a82.254,82.254,0,0,0-18.02,24.235,221.569,221.569,0,0,1-25.423,0Z" transform="translate(76.697 141.275)" fill="#404b7c"/>
    <path id="Path_22893" data-name="Path 22893" d="M188,472.938h-.152a.762.762,0,0,1-.609-.9l30.693-157.61-67.342-7.906a.762.762,0,0,1-.67-.853.777.777,0,0,1,.838-.67l68.165,8a.762.762,0,0,1,.655.9L188.734,472.314a.762.762,0,0,1-.731.624Z" transform="translate(67.942 138.265)" fill="#404b7c"/>
    <path id="Path_22894" data-name="Path 22894" d="M184.588,336.385a.746.746,0,0,1-.335-.076.762.762,0,0,1-.335-1.021c.487-.99,12.277-24.22,29.886-30.084a.763.763,0,0,1,.487,1.447c-17.015,5.667-28.942,29.079-28.942,29.322A.762.762,0,0,1,184.588,336.385Z" transform="translate(85.69 138.352)" fill="#404b7c"/>
    <path id="Path_22895" data-name="Path 22895" d="M195.99,169.376c-14.334-7.616-35.293,6.6-25.636,31.485s75.126,80.854,86.672,81.234,10.815-30.967,10.815-30.967S221.124,182.827,195.99,169.376Z" transform="translate(77.35 66.226)" fill="url(#linear-gradient)"/>
    <path id="Path_22896" data-name="Path 22896" d="M217.449,259.7,231.92,172.88H180.511L166.04,259.7Z" transform="translate(76.378 69.136)" fill="#404b7c"/>
    <path id="Path_22897" data-name="Path 22897" d="M172.11,170.56l5.225,3.534h51.409l-5.225-3.534Z" transform="translate(79.554 67.922)" fill="#e9f3ff"/>
    <path id="Path_22898" data-name="Path 22898" d="M177.081,170.56,162.61,257.385l5.225,3.534,14.471-86.825Z" transform="translate(74.584 67.922)" fill="#9ab3da"/>
    <path id="Path_22899" data-name="Path 22899" d="M235.305,259.283c-3.549-.442-12.186-8.911-18.1-15.232-3.61-3.823-6.261-6.855-6.261-6.855-6.093-18.8,7.875-26.276,7.875-26.276s3.382,1.63,8,4.174l.183.091c8.8,4.874,21.919,12.963,24.57,19.345C255.625,244.294,254.666,261.69,235.305,259.283Z" transform="translate(99.071 89.04)" fill="url(#linear-gradient)"/>
    <path id="Path_22900" data-name="Path 22900" d="M226.231,244.649a.762.762,0,0,1-.487-.168,123.742,123.742,0,0,1-10.129-9.566.765.765,0,1,1,1.1-1.066,122.216,122.216,0,0,0,9.992,9.444.762.762,0,0,1-.472,1.356Z" transform="translate(102.204 100.916)" fill="#ecbdbb"/>
    <path id="Path_22901" data-name="Path 22901" d="M234.129,222.755a.762.762,0,0,1-.442-.137c-3.229-2.285-7.114-4.722-11.546-7.235a.762.762,0,0,1,.746-1.325c4.478,2.544,8.408,5.011,11.668,7.327a.762.762,0,0,1-.427,1.371Z" transform="translate(105.548 90.64)" fill="#ecbdbb"/>
    <path id="Path_22902" data-name="Path 22902" d="M217.209,244.05c-3.61-3.823-6.261-6.855-6.261-6.855-6.093-18.8,7.875-26.276,7.875-26.276s3.382,1.63,8,4.174C228.1,221.324,229.029,234.622,217.209,244.05Z" transform="translate(99.071 89.04)" fill="#9ab3da"/>
    <path id="Path_22903" data-name="Path 22903" d="M203,225.575l5.209,1.4,9.779,9.779s7.114-8.256,3.808-16.878l-8.881-6.093-5.331-12.445Z" transform="translate(95.717 84.027)" fill="#ecbdbb"/>
    <path id="Path_22904" data-name="Path 22904" d="M210.63,202.431a29.323,29.323,0,0,0-9.52-8c-2.468-1.325-4.951,1.874-2.574,6.245,0,0-3.869,3.046-.152,7.906,0,0-3.839,3.244-.122,7.616,0,0-4.478,1.676-1.325,6.352s9.139,8.759,11.242,7.738.579-6.093.579-6.093,4.128-2.468,1.523-8.058c0,0,2.925-2.788.381-7.3C210.63,208.844,214.058,207.138,210.63,202.431Z" transform="translate(91.956 80.255)" fill="#ecbdbb"/>
    <path id="Path_22905" data-name="Path 22905" d="M205.644,215.766a.762.762,0,0,1-.609-.3,21.158,21.158,0,0,0-6.7-5.392.762.762,0,0,1,.655-1.371,22.346,22.346,0,0,1,7.266,5.849.762.762,0,0,1-.609,1.219Z" transform="translate(93.073 87.85)" fill="#404b7c"/>
    <path id="Path_22906" data-name="Path 22906" d="M206.881,211.1a.762.762,0,0,1-.64-.35,18.279,18.279,0,0,0-7.616-5.986.762.762,0,1,1,.564-1.417,19.619,19.619,0,0,1,8.363,6.58.762.762,0,0,1-.67,1.173Z" transform="translate(93.177 85.05)" fill="#404b7c"/>
    <path id="Path_22907" data-name="Path 22907" d="M206.779,206.275a.762.762,0,0,1-.64-.35,22.346,22.346,0,0,0-7.388-6.519.763.763,0,1,1,.7-1.356,23.489,23.489,0,0,1,7.967,7.053.762.762,0,0,1-.64,1.173Z" transform="translate(93.278 82.261)" fill="#404b7c"/>
    <path id="Path_22908" data-name="Path 22908" d="M192.486,258.151s-4.311,3.184-11,7.616c-12,7.86-31.653,19.589-47.647,23.671-24.875,6.352-41.889,3.046-43.153-12.948s21.325-78.736,44.936-102.819c14.212-14.471,37.06,22.346,26.4,39.863-6.687,10.983-15.735,26.9-15.735,26.9l18.644-5.347,10.556-3.046C193.247,238.852,192.486,258.151,192.486,258.151Z" transform="translate(36.924 67.826)" fill="url(#linear-gradient)"/>
    <path id="Path_22909" data-name="Path 22909" d="M119.295,256.883a.767.767,0,0,1-.183-1.523c14.41-3.671,31.851-13.633,43.945-21.325a.762.762,0,0,1,.823,1.28c-12.186,7.753-29.795,17.791-44.387,21.523Z" transform="translate(51.47 101.082)" fill="url(#linear-gradient)"/>
    <path id="Path_22910" data-name="Path 22910" d="M128.371,241.412a.762.762,0,0,1-.655-1.142c.091-.152,9.139-16.055,15.75-26.916,4.082-6.7,3.336-17.578-1.889-27.708-4.28-8.286-10.556-13.892-15.994-14.273a.763.763,0,1,1,.107-1.523c6.093.426,12.658,6.215,17.243,15.1,5.468,10.663,6.2,22.057,1.843,29.2-5.362,8.8-12.323,20.914-14.791,25.255l12.932-3.717a.791.791,0,1,1,.427,1.523L128.6,241.428Z" transform="translate(54.838 67.55)" fill="url(#linear-gradient)"/>
    <path id="Path_22911" data-name="Path 22911" d="M166.994,236.968s-4.311,3.184-11,7.616c-16.375-8.332-16.984-24.494-16.558-30.678l10.556-3.046C167.756,217.669,166.994,236.968,166.994,236.968Z" transform="translate(62.416 89.008)" fill="#9ab3da"/>
    <path id="Path_22912" data-name="Path 22912" d="M147.17,225.557s2.666,12.948,11.546,16.756l16.878-14.73s16.878-.731,18.98-2.254a5.926,5.926,0,0,0,2-4.57,6.672,6.672,0,0,0,2.1-6.855,8.2,8.2,0,0,0,1.523-8.378s4.661-7.906,5.331-10.663-2.666-3.61-5.133-.944a16.908,16.908,0,0,1-5.24,4.387c-1.325.579-14.09,3.138-14.09,3.138a4.691,4.691,0,0,1-2.407-2.452l1.386-8.3a13.389,13.389,0,0,0-7.083,7.708c-1.615,5.423-4.372,16.954-4.372,16.954Z" transform="translate(66.505 78.455)" fill="#ecbdbb"/>
    <path id="Path_22913" data-name="Path 22913" d="M234.169,420.286H103.7S67.451,315.5,69.736,255.517q.274-7.494,1.219-14.364c2.27-16.573,26.718-15.491,27.418,1.219.564,12.963,2.026,26.931,4.113,41.265h90.039l4.8.122c16.344,0,22.224,9.794,24.143,28.378C224.527,341.58,234.169,420.286,234.169,420.286Z" transform="translate(25.934 98.64)" fill="#404b7c"/>
    <path id="Path_22914" data-name="Path 22914" d="M182.918,280.158H92.879a.762.762,0,0,1-.746-.655,414.482,414.482,0,0,1-4.113-41.341.762.762,0,0,1,.731-.792.746.746,0,0,1,.792.731c.533,12.11,1.874,25.743,4.006,40.533h89.384a.762.762,0,1,1-.015,1.523Z" transform="translate(35.555 102.879)" fill="#9ab3da"/>
    <path id="Path_22915" data-name="Path 22915" d="M159.146,399.732a.762.762,0,0,1-.746-.609c-4.082-19.025-23.595-114.806-7.266-132.446a.762.762,0,1,1,1.112,1.036c-16.162,17.441,5.149,119.5,7.616,131.09a.762.762,0,0,1-.579.9h-.168Z" transform="translate(65.222 118.067)" fill="#9ab3da"/>
    <path id="Path_22916" data-name="Path 22916" d="M169.55,108.579c-12.7,6.916-19.421,45.9,3.245,47.8S195.445,94.489,169.55,108.579Z" transform="translate(72.107 34.426)" fill="#ecbdbb"/>
    <path id="Path_22917" data-name="Path 22917" d="M157.046,144.121s4.387-11.043,9.9-17.9c0,0,13.526,8.576,25.133,4.387s18.1-26.459,8.2-30.846-15.232,5.529-15.232,5.529S142.453,92.91,157.046,144.121Z" transform="translate(70.079 30.293)" fill="#404b7c"/>
    <path id="Path_22918" data-name="Path 22918" d="M165.984,130.3s-3.61-14.273-15.034-11.424-.944,24.57,15.43,17.334Z" transform="translate(65.969 40.684)" fill="#ecbdbb"/>
    <path id="Path_22919" data-name="Path 22919" d="M160.189,132.293a.762.762,0,0,1-.716-.487c0-.076-3.26-8.134-10.038-9.139a.77.77,0,0,1,.228-1.523c7.616,1.158,11.089,9.749,11.226,10.114a.762.762,0,0,1-.7,1.036Z" transform="translate(67.347 42.06)" fill="#404b7c"/>
    <path id="Path_22920" data-name="Path 22920" d="M152.482,129.834a.762.762,0,0,1-.762-.747,10.784,10.784,0,0,1,1.813-5.544.763.763,0,0,1,1.295.807,9.46,9.46,0,0,0-1.523,4.692.762.762,0,0,1-.746.777h0Z" transform="translate(68.885 43.133)" fill="#404b7c"/>
    <path id="Path_22921" data-name="Path 22921" d="M163.28,123.7s2.711-4.9,6.428-2.818a1.234,1.234,0,0,1,1.158-1.112c.99,0,.96,3.138.96,3.138a21.554,21.554,0,0,0-8.545.792Z" transform="translate(74.934 41.346)" fill="#404b7c"/>
    <path id="Path_22922" data-name="Path 22922" d="M179.06,126.244s-.076-5.118-3.047-3.839a1.173,1.173,0,0,0-.67-1.081c-1.1-.228-1.523,2.7-1.523,2.7a9.14,9.14,0,0,1,5.24,2.224Z" transform="translate(80.449 42.153)" fill="#404b7c"/>
    <ellipse id="Ellipse_419" data-name="Ellipse 419" cx="2.605" cy="2.102" rx="2.605" ry="2.102" transform="translate(241.033 173.651) rotate(-85.62)" fill="#404b7c"/>
    <circle id="Ellipse_420" data-name="Ellipse 420" cx="0.564" cy="0.564" r="0.564" transform="translate(243.269 170.844) rotate(-85.62)" fill="#fff"/>
    <ellipse id="Ellipse_421" data-name="Ellipse 421" cx="2.613" cy="2.109" rx="2.613" ry="2.109" transform="translate(254.929 174.523) rotate(-85.426)" fill="#404b7c"/>
    <circle id="Ellipse_422" data-name="Ellipse 422" cx="0.564" cy="0.564" r="0.564" transform="translate(255.619 171.79) rotate(-85.62)" fill="#fff"/>
    <path id="Path_22923" data-name="Path 22923" d="M171.9,136.06a5.332,5.332,0,0,1-1.63-.259.762.762,0,0,1,.472-1.447s2.163.685,2.8-.655a.426.426,0,0,0,0-.442,3.381,3.381,0,0,0-2.087-.777.762.762,0,0,1-.7-.807l.35-5.072a.777.777,0,0,1,.807-.7.762.762,0,0,1,.7.807l-.3,4.372a3.747,3.747,0,0,1,2.544,1.447,1.9,1.9,0,0,1,0,1.858A3.138,3.138,0,0,1,171.9,136.06Z" transform="translate(78.331 44.554)" fill="#404b7c"/>
    <path id="Path_22924" data-name="Path 22924" d="M174.087,136.907s-5.773,3.351-8.987-3.717Z" transform="translate(75.886 48.368)" fill="#fff"/>
    <rect id="Rectangle_3169" data-name="Rectangle 3169" width="310.939" height="17.517" rx="5.75" transform="translate(314.391 665.096) rotate(-90)" fill="#404b7c"/>
    <rect id="Rectangle_3170" data-name="Rectangle 3170" width="295.128" height="17.517" rx="5.75" transform="translate(206.348 354.157)" fill="#9ab3da"/>
    <rect id="Rectangle_3171" data-name="Rectangle 3171" width="123.002" height="17.517" rx="5.75" transform="translate(144.839 354.157)" fill="#e9f3ff"/>
    <path id="Path_22925" data-name="Path 22925" d="M303.9,448.392H288.944l-5.864-21.066-2.62-9.4,17.335-2.087,1.569,8.363Z" transform="translate(136.247 196.262)" fill="#ecbdbb"/>
    <path id="Path_22926" data-name="Path 22926" d="M299.363,424.2l-16.283,3.123-2.62-9.4,17.335-2.087Z" transform="translate(136.247 196.262)" fill="#404b7c"/>
    <path id="Path_22927" data-name="Path 22927" d="M317.87,434.05A212,212,0,0,1,296,433.09c-8.271,13.328-37.045,23.229-38.233,25.255a11.577,11.577,0,0,0-.625,4.57c0,2.94.289,6.093.289,6.093H321.1A194.98,194.98,0,0,0,317.87,434.05Z" transform="translate(124.032 205.288)" fill="#404b7c"/>
    <path id="Path_22928" data-name="Path 22928" d="M321.019,452.67H257.15c0,2.94.289,6.093.289,6.093h63.671C321.111,456.707,321.08,454.7,321.019,452.67Z" transform="translate(124.051 215.533)" fill="#9ab3da"/>
    <path id="Path_22929" data-name="Path 22929" d="M376.678,294.228s-117.868-2.544-127.952,0-9.292,18.279-7.921,28.439,56.36,163.489,56.36,163.489h25.24s-15.065-96.985-22.026-129.978c0,0,108.805,19.8,131,13.709s21.082-49.764,21.082-49.764Z" transform="translate(115.079 132.039)" fill="#404b7c"/>
    <path id="Path_22930" data-name="Path 22930" d="M296.6,474.923a.762.762,0,0,1-.716-.518L258.408,326.65a.762.762,0,0,1,.731-.944H374.128l11.379-20.929a.763.763,0,1,1,1.34.731L375.24,326.833a.762.762,0,0,1-.67.4H260.129L297.4,473.963a.762.762,0,0,1-.548.929Z" transform="translate(124.697 137.941)" fill="#9ab3da"/>
    <path id="Path_22931" data-name="Path 22931" d="M289.887,343.711a.761.761,0,0,1-.35-.091c-.229-.122-22.666-12.095-35.568-29.551a.762.762,0,1,1,1.219-.9c12.673,17.167,34.821,28.942,35.035,29.094a.762.762,0,0,1-.335,1.447Z" transform="translate(122.281 142.343)" fill="#9ab3da"/>
    <path id="Path_22932" data-name="Path 22932" d="M336.839,329.664a.762.762,0,0,1-.64-.35c-12.186-18.6-.868-29.429-.746-29.536a.762.762,0,0,1,1.036,1.112c-.442.411-10.5,10.1.99,27.586a.762.762,0,0,1-.64,1.188Z" transform="translate(162.459 135.445)" fill="#9ab3da"/>
    <path id="Path_22933" data-name="Path 22933" d="M244.721,415.84v32.552H228.91l-2.239-18.842L225.3,417.927Z" transform="translate(107.386 196.262)" fill="#ecbdbb"/>
    <path id="Path_22934" data-name="Path 22934" d="M225.3,417.927l19.421-2.087v9.977l-18.05,3.732Z" transform="translate(107.386 196.262)" fill="#404b7c"/>
    <path id="Path_22935" data-name="Path 22935" d="M271.017,469.008H188a53.685,53.685,0,0,1,1.112-6.093,11.21,11.21,0,0,1,1.934-4.57c2.041-2.026,38.218-11.927,52.232-25.255a240.465,240.465,0,0,0,24.57.96,180.666,180.666,0,0,1,3.046,28.866C270.986,464.941,271.017,466.921,271.017,469.008Z" transform="translate(87.869 205.288)" fill="#404b7c"/>
    <path id="Path_22936" data-name="Path 22936" d="M271.017,458.763H188a53.685,53.685,0,0,1,1.112-6.093h81.813C270.986,454.7,271.017,456.676,271.017,458.763Z" transform="translate(87.869 215.533)" fill="#9ab3da"/>
    <path id="Path_22937" data-name="Path 22937" d="M342.487,294.228s-110.176-2.544-123.885,0-16.558,18.279-17.258,28.439,33.511,163.489,33.511,163.489h25.377s4.067-96.985,3.046-129.978c0,0,101.554,19.8,132.019,13.709s39.6-49.764,39.6-49.764Z" transform="translate(94.845 132.039)" fill="#9ab3da"/>
    <path id="Path_22938" data-name="Path 22938" d="M235.1,487.182a.762.762,0,0,1-.746-.594c-1.4-6.276-34.212-153.771-33.511-163.718,1.188-17.35,7.2-27.159,17.883-29.124,13.633-2.529,119.544-.122,124.053,0a.762.762,0,0,1,.746.777.777.777,0,0,1-.777.746c-1.1,0-110.252-2.513-123.733,0-9.9,1.828-15.507,11.165-16.634,27.738-.67,9.734,33.146,161.738,33.511,163.276a.762.762,0,0,1-.579.914h-.168Z" transform="translate(94.583 131.775)" fill="#404b7c"/>
    <path id="Path_22939" data-name="Path 22939" d="M236.621,474.926a.762.762,0,0,1-.762-.7L223.171,326.471a.762.762,0,0,1,.762-.823H331.245l20.092-21.082a.762.762,0,0,1,1.1,1.051l-20.3,21.325a.761.761,0,0,1-.548.244H224.755l12.628,146.932a.762.762,0,0,1-.7.823h0Z" transform="translate(106.27 137.938)" fill="#404b7c"/>
    <path id="Path_22940" data-name="Path 22940" d="M250.737,343.7a.747.747,0,0,1-.4-.122c-.183-.122-19.117-12.079-31.638-29.52a.762.762,0,1,1,1.234-.883c12.323,17.182,31.013,28.942,31.2,29.124a.762.762,0,0,1-.4,1.4Z" transform="translate(103.838 142.35)" fill="#404b7c"/>
    <path id="Path_22941" data-name="Path 22941" d="M295.9,329.681a.762.762,0,0,1-.655-.366c-3.549-5.8-4.692-11.44-3.4-16.756a22.635,22.635,0,0,1,9.49-12.871.765.765,0,1,1,.792,1.31,21.462,21.462,0,0,0-8.8,11.942c-1.188,4.89-.107,10.13,3.229,15.568a.762.762,0,0,1-.655,1.173Z" transform="translate(141.936 135.429)" fill="#404b7c"/>
    <path id="Path_22942" data-name="Path 22942" d="M321.855,127.17s-2.407,4.037-3.808,6.459,6.6,3.443,6.6,3.443Z" transform="translate(155.828 45.218)" fill="#ecbdbb"/>
    <path id="Path_22943" data-name="Path 22943" d="M324.905,137.969h-.091c-1.036-.137-6.26-.9-7.251-2.879a1.767,1.767,0,0,1,.076-1.706c1.4-2.422,3.808-6.474,3.808-6.474l1.31.777s-2.407,4.037-3.808,6.459a.244.244,0,0,0,0,.259c.411.838,3.473,1.706,6.093,2.041a.765.765,0,1,1-.137,1.523Z" transform="translate(155.565 45.082)" fill="#404b7c"/>
    <path id="Path_22944" data-name="Path 22944" d="M361.308,133.507c-1.158,19.345-17.38,27.738-28.149,26.124a14.544,14.544,0,0,1-3.275-.853c-11.424-4.57-13.024-30.465-8.378-43.671,3.046-8.637,36.558-15.232,39.6,11.424A38.867,38.867,0,0,1,361.308,133.507Z" transform="translate(156.451 34.937)" fill="#ecbdbb"/>
    <path id="Path_22945" data-name="Path 22945" d="M356.469,124.58c-1.158,19.345-17.38,27.738-28.149,26.124,9.139-7.342,11.226-25.225,11.226-25.225S348.3,124.778,356.469,124.58Z" transform="translate(161.29 43.863)" fill="#404b7c"/>
    <path id="Path_22946" data-name="Path 22946" d="M347.732,135.132l1.234,23.7-15.8.853.716-26.017Z" transform="translate(163.828 48.62)" fill="#ecbdbb"/>
    <path id="Path_22947" data-name="Path 22947" d="M316.746,92.67s-15.735,11.424-6.6,29.962,31.729,10.4,31.729,10.4l2.544,14.09s2.787,14.852,15.111,14.852,24.25-23.869,24.113-27.038-6.093-11.165-6.093-11.165.381-17.258-5.834-20.183-24.25,3.686-24.25,3.686S333.761,94.955,316.746,92.67Z" transform="translate(150.289 27.167)" fill="#404b7c"/>
    <path id="Path_22948" data-name="Path 22948" d="M330.61,133.752s4.311-11.546,12.948-9.52S346.1,141.49,332.514,140.1Z" transform="translate(162.488 43.556)" fill="#ecbdbb"/>
    <path id="Path_22949" data-name="Path 22949" d="M332.949,136.041a.746.746,0,0,1-.274,0,.762.762,0,0,1-.426-.99c.122-.32,3.046-7.753,9.733-8.759a.777.777,0,0,1,.868.64.762.762,0,0,1-.64.868c-5.788.883-8.515,7.738-8.545,7.8a.762.762,0,0,1-.716.442Z" transform="translate(163.317 44.756)" fill="#404b7c"/>
    <path id="Path_22950" data-name="Path 22950" d="M336.927,133.943h0a.762.762,0,0,1-.746-.777,8.058,8.058,0,0,0-1.34-3.976.763.763,0,0,1,1.295-.807,9.383,9.383,0,0,1,1.523,4.829.762.762,0,0,1-.731.731Z" transform="translate(164.641 45.665)" fill="#404b7c"/>
    <path id="Path_22951" data-name="Path 22951" d="M321.29,154.8s32.658-17.7,57.792-5.042l-5.133,16.756-45.789,3.046Z" transform="translate(157.611 54.65)" fill="url(#linear-gradient)"/>
    <path id="Path_22952" data-name="Path 22952" d="M334.963,166.9a81.508,81.508,0,0,1,48.744-11.044c28.759,2.483,38.279,16.756,41.326,24.57s19.8,126.627,13.709,214.213c0,0-40.625,15.232-82.377,10.663s-73.694-46.474-73.694-46.474,31.226-74.639,33.511-112.72S321.954,178.374,334.963,166.9Z" transform="translate(137.404 60.062)" fill="url(#linear-gradient)"/>
    <path id="Path_22953" data-name="Path 22953" d="M327.457,160.864a.771.771,0,0,1-.244-1.523,83.657,83.657,0,0,1,33.648-4.006,82.256,82.256,0,0,1,9.566,1.371.762.762,0,0,1,.594.9.777.777,0,0,1-.9.594,80.742,80.742,0,0,0-9.383-1.34A82.163,82.163,0,0,0,327.7,160.8Z" transform="translate(160.371 59.796)" fill="#9ab3da"/>
    <path id="Path_22954" data-name="Path 22954" d="M266.638,186.117c-.381-.122-13.45-9.52-13.45-9.52s-5.072-5.971-7.357-6.6a49.14,49.14,0,0,1-9.779-4.067c-1.523-1.142-6.093-6.474-8.5-7.235s-2.407,3.93.381,7.616,3.549,5.59,1.523,6.855-10.922.64-13.587-.259-9.9-4.829-11.927-4.951-2.026,3.305.259,4.829,13.831,10.16,18.157,11.3,21.828.762,21.828.762l16.375,14.73Z" transform="translate(95.431 61.672)" fill="#ecbdbb"/>
    <path id="Path_22955" data-name="Path 22955" d="M265.511,182.389,250.1,173.63s-15.8,2.483-15.8,25.133l12.948,12.567S266.852,201.612,265.511,182.389Z" transform="translate(112.095 69.528)" fill="#9ab3da"/>
    <path id="Path_22956" data-name="Path 22956" d="M360.721,162.17c-16.04-.32-53.313,59.147-53.313,59.147L254.6,189.071s-11.424,4.57-11.927,20.564c0,0,46.459,59.147,64.738,63.717s65.24-45.7,73.618-61.691S385.6,162.673,360.721,162.17Z" transform="translate(116.474 63.531)" fill="url(#linear-gradient)"/>
    <path id="Path_22957" data-name="Path 22957" d="M283.689,233.618a.762.762,0,0,1-.746-.655,74.274,74.274,0,0,1,2.574-30.465.764.764,0,0,1,1.447.487,72.627,72.627,0,0,0-2.513,29.734.762.762,0,0,1-.64.868H283.7Z" transform="translate(137.253 84.361)" fill="#9ab3da"/>
    <path id="Path_22958" data-name="Path 22958" d="M306.265,258.883a.762.762,0,0,1-.487-1.356c17.746-14.654,36.664-36.405,41.706-46.063,5.209-9.947,5.255-25.225.107-35.552-3.488-7.022-9.139-11.333-16.146-12.506a.771.771,0,1,1,.244-1.523c7.616,1.249,13.542,5.864,17.273,13.328,5.347,10.663,5.3,26.611-.122,36.939-5.118,9.779-24.2,31.76-42.087,46.52A.761.761,0,0,1,306.265,258.883Z" transform="translate(149.346 63.377)" fill="#9ab3da"/>
    <path id="Path_22959" data-name="Path 22959" d="M326.553,361l26.718,139.407a5.316,5.316,0,0,1-5.225,6.306h0a5.317,5.317,0,0,1-5.1-3.824L301.42,361Z" transform="translate(147.215 167.568)" fill="#404b7c"/>
    <path id="Path_22960" data-name="Path 22960" d="M272.88,361,246.162,500.407a5.316,5.316,0,0,0,5.225,6.306h0a5.316,5.316,0,0,0,5.1-3.824L298.013,361Z" transform="translate(118.253 167.568)" fill="#9ab3da"/>
    <path id="Path_22961" data-name="Path 22961" d="M395.3,361l26.718,139.407a5.316,5.316,0,0,1-5.225,6.306h0a5.317,5.317,0,0,1-5.1-3.824L370.17,361Z" transform="translate(183.187 167.568)" fill="#9ab3da"/>
    <path id="Path_22962" data-name="Path 22962" d="M341.63,361,314.912,500.407a5.316,5.316,0,0,0,5.225,6.306h0a5.316,5.316,0,0,0,5.1-3.824L366.763,361Z" transform="translate(154.225 167.568)" fill="#9ab3da"/>
    <path id="Path_22963" data-name="Path 22963" d="M471.687,354.67l-9.139,17.258H260.581L252.34,354.67Z" transform="translate(121.534 164.256)" fill="#9ab3da"/>
    <path id="Path_22964" data-name="Path 22964" d="M284.544,367.023h-19.8a.762.762,0,0,1,0-1.523h19.8a.762.762,0,1,1,0,1.523Z" transform="translate(127.624 169.922)" fill="#404b7c"/>
    <path id="Path_22965" data-name="Path 22965" d="M434.636,354.67l-6.931,17.258H327.857c-1.295-4.3-2.955-10.16-4.707-17.258Z" transform="translate(158.585 164.256)" fill="#404b7c"/>
    <path id="Path_22966" data-name="Path 22966" d="M513.59,307.92c-6.6,68.546-31.47,131-31.47,131H262.774c-31.9-68.043-33.268-95.873-28.073-116.787a29.627,29.627,0,0,1,28.8-22.361H336.27s24.494-106.109,92.537-106.109a117.991,117.991,0,0,1,28.469,3.2c28.256,7.068,45.134,25.438,52.689,51.958a127.958,127.958,0,0,1,4.372,26.885v.244c0,.99.107,2,.152,3.046s.076,1.691.091,2.529A210.463,210.463,0,0,1,513.59,307.92Z" transform="translate(111.1 80.007)" fill="#9ab3da"/>
    <path id="Path_22967" data-name="Path 22967" d="M473.412,396.585H263.037a.762.762,0,0,1-.685-.442c-31.074-66.23-33.709-94.776-28.119-117.289q.289-1.173.67-2.315a.763.763,0,1,1,1.447.487q-.366,1.081-.64,2.193c-5.5,22.133-2.879,50.267,27.814,115.766h209.9a.8.8,0,0,1-.015,1.6Z" transform="translate(110.837 123.102)" fill="#404b7c"/>
    <path id="Path_22968" data-name="Path 22968" d="M469.733,300.481c-6.6,68.546-31.47,131-31.47,131H326.777a367.771,367.771,0,0,1-9.7-59.406c-1.615-21.021-1.188-43.778,3.382-65.5,14.73-70.069,50.785-104.1,93.938-98.005a6.238,6.238,0,0,1,1.28.213l.731.107A64.57,64.57,0,0,1,470.48,268.3v.244c0,.99.107,2,.152,3.047s.076,1.676.091,2.529A210.466,210.466,0,0,1,469.733,300.481Z" transform="translate(154.957 87.446)" fill="#404b7c"/>
    <path id="Path_22969" data-name="Path 22969" d="M430.207,355.663H326.262a.762.762,0,0,1,0-1.523H430.223a.762.762,0,0,1-.015,1.523Z" transform="translate(159.814 163.978)" fill="#9ab3da"/>
    <path id="Path_22970" data-name="Path 22970" d="M320.93,125.573s0-3.244,1.051-3.519.807.9.807.9,5.286-.944,6.672,2.452A15.141,15.141,0,0,0,320.93,125.573Z" transform="translate(157.423 42.52)" fill="#404b7c"/>
    <ellipse id="Ellipse_423" data-name="Ellipse 423" cx="2.163" cy="2.666" rx="2.163" ry="2.666" transform="translate(479.252 169.799)" fill="#404b7c"/>
    <path id="Path_22971" data-name="Path 22971" d="M323.513,138.487a.764.764,0,0,1-.122-1.523,8.835,8.835,0,0,0,4.707-3.046.762.762,0,1,1,1.173.96,10.16,10.16,0,0,1-5.621,3.641h-.122Z" transform="translate(158.343 48.57)" fill="#404b7c"/>
    <circle id="Ellipse_424" data-name="Ellipse 424" cx="0.746" cy="0.746" r="0.746" transform="translate(481.11 170.363)" fill="#fff"/>
    <path id="Path_22972" data-name="Path 22972" d="M311.25,55.419V87.772A14.669,14.669,0,0,0,325.9,102.441h2.483v11.805a3.123,3.123,0,0,0,5.331,2.285l14.09-14.09h37.5a14.669,14.669,0,0,0,14.669-14.669V55.419A14.669,14.669,0,0,0,385.31,40.75H325.9A14.669,14.669,0,0,0,311.25,55.419Z" transform="translate(152.358 0)" fill="#e9f3ff"/>
    <rect id="Rectangle_3172" data-name="Rectangle 3172" width="58.645" height="7.357" rx="2.42" transform="translate(479.48 52.555)" fill="#404b7c"/>
    <rect id="Rectangle_3173" data-name="Rectangle 3173" width="58.645" height="7.357" rx="2.42" transform="translate(479.48 67.529)" fill="#404b7c"/>
    <rect id="Rectangle_3174" data-name="Rectangle 3174" width="31.226" height="7.357" rx="2.42" transform="translate(479.48 82.517)" fill="#404b7c"/>
    <path id="Path_22973" data-name="Path 22973" d="M227.92,82.919v32.354a14.669,14.669,0,0,0,14.654,14.669h2.483v11.881a3.123,3.123,0,0,0,5.331,2.209l14.09-14.09h37.5a14.669,14.669,0,0,0,14.669-14.669V82.919A14.669,14.669,0,0,0,301.98,68.25H242.574A14.669,14.669,0,0,0,227.92,82.919Z" transform="translate(108.756 14.389)" fill="#9ab3da"/>
    <circle id="Ellipse_425" data-name="Ellipse 425" cx="6.596" cy="6.596" r="6.596" transform="translate(398.566 106.63)" fill="#fff"/>
    <circle id="Ellipse_426" data-name="Ellipse 426" cx="6.596" cy="6.596" r="6.596" transform="translate(374.438 106.63)" fill="#fff"/>
    <circle id="Ellipse_427" data-name="Ellipse 427" cx="6.596" cy="6.596" r="6.596" transform="translate(350.325 106.63)" fill="#fff"/>
    <circle id="Ellipse_428" data-name="Ellipse 428" cx="9.718" cy="9.718" r="9.718" transform="translate(148.541 146.234)" fill="#9ab3da"/>
    <circle id="Ellipse_429" data-name="Ellipse 429" cx="4.189" cy="4.189" r="4.189" transform="translate(161.885 115.008)" fill="#e9f3ff"/>
    <circle id="Ellipse_430" data-name="Ellipse 430" cx="8.378" cy="8.378" r="8.378" transform="translate(287.552 113.104)" fill="#e9f3ff"/>
    <circle id="Ellipse_431" data-name="Ellipse 431" cx="10.16" cy="10.16" r="10.16" transform="translate(425.146 179.228)" fill="#e9f3ff"/>
    <circle id="Ellipse_432" data-name="Ellipse 432" cx="4.554" cy="4.554" r="4.554" transform="translate(636.389 380.326)" fill="#9ab3da"/>
    <circle id="Ellipse_433" data-name="Ellipse 433" cx="5.91" cy="5.91" r="5.91" transform="translate(568.331 206.783)" fill="#9ab3da"/>
    <circle id="Ellipse_434" data-name="Ellipse 434" cx="5.91" cy="5.91" r="5.91" transform="translate(657.73 360.234)" fill="#e9f3ff"/>
    <circle id="Ellipse_435" data-name="Ellipse 435" cx="2.666" cy="2.666" r="2.666" transform="translate(599.816 238.39)" fill="#e9f3ff"/>
    <path id="Path_22974" data-name="Path 22974" d="M97.052,98.3a.762.762,0,0,1-.762-.762V91.122a.762.762,0,1,1,1.523,0v6.413A.762.762,0,0,1,97.052,98.3Z" transform="translate(39.882 25.958)" fill="#9ab3da"/>
    <path id="Path_22975" data-name="Path 22975" d="M106.35,98.963H99.922a.762.762,0,0,1,0-1.523h6.413a.762.762,0,1,1,.015,1.523Z" transform="translate(41.384 29.663)" fill="#9ab3da"/>
    <path id="Path_22976" data-name="Path 22976" d="M97.052,108.246a.762.762,0,0,1-.762-.762v-6.413a.762.762,0,1,1,1.523,0v6.382a.762.762,0,0,1-.762.792Z" transform="translate(39.882 31.164)" fill="#9ab3da"/>
    <path id="Path_22977" data-name="Path 22977" d="M96.4,98.963H89.972a.762.762,0,0,1,0-1.523h6.413a.762.762,0,0,1,.015,1.523Z" transform="translate(36.178 29.663)" fill="#9ab3da"/>
    <path id="Path_22978" data-name="Path 22978" d="M408.392,160.3a.762.762,0,0,1-.762-.762v-6.413a.762.762,0,0,1,1.523,0v6.413A.762.762,0,0,1,408.392,160.3Z" transform="translate(202.788 58.399)" fill="#9ab3da"/>
    <path id="Path_22979" data-name="Path 22979" d="M417.674,160.963h-6.413a.762.762,0,0,1,0-1.523h6.413a.762.762,0,0,1,0,1.523Z" transform="translate(204.29 62.103)" fill="#9ab3da"/>
    <path id="Path_22980" data-name="Path 22980" d="M408.392,170.246a.762.762,0,0,1-.762-.762v-6.413a.762.762,0,0,1,1.523,0v6.382a.762.762,0,0,1-.762.792Z" transform="translate(202.788 63.605)" fill="#9ab3da"/>
    <path id="Path_22981" data-name="Path 22981" d="M407.751,160.964h-6.489a.762.762,0,0,1,0-1.523h6.413a.763.763,0,1,1,.076,1.523Z" transform="translate(199.057 62.103)" fill="#9ab3da"/>
    <path id="Path_22982" data-name="Path 22982" d="M197.812,153.856a.762.762,0,0,1-.762-.762v-6.413a.762.762,0,0,1,1.523,0v6.413A.762.762,0,0,1,197.812,153.856Z" transform="translate(92.604 55.029)" fill="#9ab3da"/>
    <path id="Path_22983" data-name="Path 22983" d="M207.094,154.523h-6.413a.762.762,0,0,1,0-1.523h6.413a.762.762,0,0,1,0,1.523Z" transform="translate(94.106 58.734)" fill="#9ab3da"/>
    <path id="Path_22984" data-name="Path 22984" d="M197.812,163.806a.762.762,0,0,1-.762-.762v-6.413a.762.762,0,1,1,1.523,0v6.413A.762.762,0,0,1,197.812,163.806Z" transform="translate(92.604 60.235)" fill="#9ab3da"/>
    <path id="Path_22985" data-name="Path 22985" d="M197.144,154.523h-6.413a.762.762,0,1,1,0-1.523h6.413a.762.762,0,0,1,0,1.523Z" transform="translate(88.899 58.734)" fill="#9ab3da"/>
  </g>
</svg>
