<svg xmlns="http://www.w3.org/2000/svg" width="185" height="44.048" viewBox="0 0 185 44.048">
  <g id="Group_6138" data-name="Group 6138" transform="translate(-868 -3572.476)">
    <path id="Path_18" data-name="Path 18" d="M263.967,400.589l-22.8-.018-.013,41.411h22.811v-6.548l-16.376-.019-.042-12.07,12.9-.02v-6.549H247.568l-.027-9.659,16.422.021,0-6.549Z" transform="translate(663.708 3173.237)" fill="#0f313d" fill-rule="evenodd"/>
    <path id="Path_19" data-name="Path 19" d="M234.453,413.124a19.671,19.671,0,0,0-1.582-3.014,18.948,18.948,0,0,0-2.142-2.754,22.067,22.067,0,0,0-2.85-2.561,21.424,21.424,0,0,0-6.984-3.468,17.482,17.482,0,0,0-4.722-.673h0l-12.322-.073-.017,41.411,12.594,0h0a19,19,0,0,0,6.994-1.5,21.406,21.406,0,0,0,4.935-2.868,19.685,19.685,0,0,0,3.084-2.991,19.323,19.323,0,0,0,2.353-3.593,21.348,21.348,0,0,0,1.493-3.9,20.453,20.453,0,0,0,.658-3.643,22.819,22.819,0,0,0-.452-7.1,19.825,19.825,0,0,0-1.041-3.272Zm-4.915,9.758a14.887,14.887,0,0,1-.461,2.573,14.279,14.279,0,0,1-1.009,2.646,13,13,0,0,1-1.581,2.413,13.226,13.226,0,0,1-2.07,2.009,14.969,14.969,0,0,1-1.658,1.118,13.356,13.356,0,0,1-6.383,1.9h-6.1l.012-28.474,5.85.034h0a11.112,11.112,0,0,1,3,.426A15.066,15.066,0,0,1,224,409.94a15.668,15.668,0,0,1,1.982,1.771,12.817,12.817,0,0,1,1.459,1.863,13.142,13.142,0,0,1,1.069,2.03,13.277,13.277,0,0,1,.709,2.228,16.387,16.387,0,0,1,.317,5.05Z" transform="translate(664.165 3173.237)" fill="#0f313d" fill-rule="evenodd"/>
    <path id="Path_20" data-name="Path 20" d="M383.934,400.591l0,25.53-27.839-26.886-.021,42.743,6.614-.018.021-26.887,28.068,26.771.028-41.253Z" transform="translate(662.196 3173.242)" fill="#0f313d" fill-rule="evenodd"/>
    <path id="Path_21" data-name="Path 21" d="M298.056,426.148l-27.839-26.886L270.2,442l6.615-.018.021-26.887L304.9,441.871l.028-41.253h-6.87l0,25.53Z" transform="translate(663.307 3173.242)" fill="#0f313d" fill-rule="evenodd"/>
    <path id="Path_22" data-name="Path 22" d="M350.312,412.213a21.84,21.84,0,0,0-11.831-11.2,22.384,22.384,0,0,0-8.066-1.523,21.5,21.5,0,0,0-7.754,1.428,21.916,21.916,0,0,0,2.094,41.61,21.5,21.5,0,0,0,7.859.64,22.371,22.371,0,0,0,7.872-2.329A21.76,21.76,0,0,0,347,435.706a21.937,21.937,0,0,0,3.314-23.493Zm-5.266,14.195a15.422,15.422,0,0,1-7.512,8.7,15.783,15.783,0,0,1-5.554,1.642,15.127,15.127,0,0,1-5.544-.451,15.464,15.464,0,0,1-1.478-29.358,15.158,15.158,0,0,1,5.471-1.008,15.766,15.766,0,0,1,5.691,1.075,15.4,15.4,0,0,1,8.348,7.9,15.471,15.471,0,0,1,.579,11.495Z" transform="translate(662.747 3173.241)" fill="#0f313d" fill-rule="evenodd"/>
  </g>
</svg>
