<svg xmlns="http://www.w3.org/2000/svg" width="179.05" height="280.979" viewBox="0 0 179.05 280.979">
  <g id="Group_814" data-name="Group 814" transform="translate(12649 -5582.538)" opacity="0.1">
    <path id="Fill_1" data-name="Fill 1" d="M18,9A9,9,0,1,1,9,0a9,9,0,0,1,9,9" transform="translate(-12649 5582.538)" fill="#007bc2"/>
    <path id="Fill_3" data-name="Fill 3" d="M18,9A9,9,0,1,1,9,0a9,9,0,0,1,9,9" transform="translate(-12593.783 5582.538)" fill="#007bc2"/>
    <path id="Fill_5" data-name="Fill 5" d="M18,9A9,9,0,1,1,9,0a9,9,0,0,1,9,9" transform="translate(-12543.167 5582.538)" fill="#007bc2"/>
    <path id="Fill_7" data-name="Fill 7" d="M18,9A9,9,0,1,1,9,0a9,9,0,0,1,9,9" transform="translate(-12487.95 5582.538)" fill="#007bc2"/>
    <path id="Fill_14" data-name="Fill 14" d="M18,9A9,9,0,1,1,9,0a9,9,0,0,1,9,9" transform="translate(-12649 5633.288)" fill="#007bc2"/>
    <path id="Fill_16" data-name="Fill 16" d="M18,9A9,9,0,1,1,9,0a9,9,0,0,1,9,9" transform="translate(-12593.783 5633.288)" fill="#007bc2"/>
    <path id="Fill_18" data-name="Fill 18" d="M18,9A9,9,0,1,1,9,0a9,9,0,0,1,9,9" transform="translate(-12543.167 5633.288)" fill="#007bc2"/>
    <path id="Fill_20" data-name="Fill 20" d="M18,9A9,9,0,1,1,9,0a9,9,0,0,1,9,9" transform="translate(-12487.95 5633.288)" fill="#007bc2"/>
    <path id="Fill_27" data-name="Fill 27" d="M18,9A9,9,0,1,1,9,0a9,9,0,0,1,9,9" transform="translate(-12649 5688.652)" fill="#007bc2"/>
    <path id="Fill_29" data-name="Fill 29" d="M18,9A9,9,0,1,1,9,0a9,9,0,0,1,9,9" transform="translate(-12593.783 5688.652)" fill="#007bc2"/>
    <path id="Fill_31" data-name="Fill 31" d="M18,9A9,9,0,1,1,9,0a9,9,0,0,1,9,9" transform="translate(-12543.167 5688.652)" fill="#007bc2"/>
    <path id="Fill_33" data-name="Fill 33" d="M18,9A9,9,0,1,1,9,0a9,9,0,0,1,9,9" transform="translate(-12487.95 5688.652)" fill="#007bc2"/>
    <path id="Fill_40" data-name="Fill 40" d="M18,9A9,9,0,1,1,9,0a9,9,0,0,1,9,9" transform="translate(-12649 5739.402)" fill="#007bc2"/>
    <path id="Fill_42" data-name="Fill 42" d="M18,9A9,9,0,1,1,9,0a9,9,0,0,1,9,9" transform="translate(-12593.783 5739.402)" fill="#007bc2"/>
    <path id="Fill_44" data-name="Fill 44" d="M18,9A9,9,0,1,1,9,0a9,9,0,0,1,9,9" transform="translate(-12543.167 5739.402)" fill="#007bc2"/>
    <path id="Fill_46" data-name="Fill 46" d="M18,9A9,9,0,1,1,9,0a9,9,0,0,1,9,9" transform="translate(-12487.95 5739.402)" fill="#007bc2"/>
    <path id="Fill_53" data-name="Fill 53" d="M18,9A9,9,0,1,1,9,0a9,9,0,0,1,9,9" transform="translate(-12649 5794.766)" fill="#007bc2"/>
    <path id="Fill_55" data-name="Fill 55" d="M18,9A9,9,0,1,1,9,0a9,9,0,0,1,9,9" transform="translate(-12593.783 5794.766)" fill="#007bc2"/>
    <path id="Fill_57" data-name="Fill 57" d="M18,9A9,9,0,1,1,9,0a9,9,0,0,1,9,9" transform="translate(-12543.167 5794.766)" fill="#007bc2"/>
    <path id="Fill_59" data-name="Fill 59" d="M18,9A9,9,0,1,1,9,0a9,9,0,0,1,9,9" transform="translate(-12487.95 5794.766)" fill="#007bc2"/>
    <path id="Fill_66" data-name="Fill 66" d="M18,9A9,9,0,1,1,9,0a9,9,0,0,1,9,9" transform="translate(-12649 5845.517)" fill="#007bc2"/>
    <path id="Fill_68" data-name="Fill 68" d="M18,9A9,9,0,1,1,9,0a9,9,0,0,1,9,9" transform="translate(-12593.783 5845.517)" fill="#007bc2"/>
    <path id="Fill_70" data-name="Fill 70" d="M18,9A9,9,0,1,1,9,0a9,9,0,0,1,9,9" transform="translate(-12543.167 5845.517)" fill="#007bc2"/>
    <path id="Fill_72" data-name="Fill 72" d="M18,9A9,9,0,1,1,9,0a9,9,0,0,1,9,9" transform="translate(-12487.95 5845.517)" fill="#007bc2"/>
  </g>
</svg>
