<svg id="Group_12" data-name="Group 12" xmlns="http://www.w3.org/2000/svg" width="110" height="25" viewBox="0 0 110 25">
  <path id="Path_34" data-name="Path 34" d="M724.474,223.306a1.827,1.827,0,0,0-1.34-.555,1.857,1.857,0,0,0-1.3.514,1.808,1.808,0,0,0-.592,1.381,1.9,1.9,0,1,0,3.236-1.34Zm-.237,2.456a1.552,1.552,0,0,1-2.209,0,1.574,1.574,0,0,1-.008-2.217,1.538,1.538,0,0,1,2.219,0,1.519,1.519,0,0,1,.455,1.1,1.535,1.535,0,0,1-.458,1.116Z" transform="translate(-615.029 -221.778)" fill="#0f313d" fill-rule="evenodd"/>
  <path id="Path_35" data-name="Path 35" d="M113.584,222.709v3.681h-12.9v5.484h11.252v3.76H100.684v6.675h12.878v3.534h-17.5V222.709Z" transform="translate(-96.062 -221.743)" fill="#0f313d" fill-rule="evenodd"/>
  <path id="Path_36" data-name="Path 36" d="M339.447,223.715c-.322-1.817-1.249-3.224-4.836-3.305-2.353-.054-3.973.785-4.327,2.5a2.758,2.758,0,0,0,2.089,3.166c.44.154,3.678,1.026,4.581,1.185,1.29.223,4.169.763,5.9,2.29,3.4,2.992,2.37,8.131-1.269,10.458-2,1.272-3.959,1.735-7.494,1.763a12.205,12.205,0,0,1-5.842-1.833,7.061,7.061,0,0,1-3.289-5.768h4.458a4.36,4.36,0,0,0,1.32,2.6c1.324,1.388,3.162,1.361,4.774,1.3a5.793,5.793,0,0,0,3.6-1.292c1.522-1.408,1.052-2.829-.189-4.052-1.548-1.59-6.119-1.8-9.149-2.819a6.024,6.024,0,0,1-4.327-6.494c.25-3.9,4.051-6.638,9.4-6.635,1.257,0,5.214.166,7.5,3.028a6.239,6.239,0,0,1,1.5,3.921Z" transform="translate(-285.758 -216.766)" fill="#0f313d" fill-rule="evenodd"/>
  <path id="Path_37" data-name="Path 37" d="M596.5,245.843V222.709h5.122l9.31,16.105V222.709h4.552v23.134H610.6l-9.548-16.436v16.436Z" transform="translate(-510.572 -221.743)" fill="#0f313d" fill-rule="evenodd"/>
  <path id="Path_38" data-name="Path 38" d="M229.01,224.516a8.383,8.383,0,0,0-5.614-1.807H213.214v23.134h4.853v-8.357h4.964a9.317,9.317,0,0,0,5.979-1.688q2.094-1.688,2.094-5.766,0-3.734-2.094-5.516Zm-3.7,8.173a3.985,3.985,0,0,1-2.688.828h-4.552v-6.782h4.552a4.209,4.209,0,0,1,2.688.766,3.094,3.094,0,0,1,.96,2.563,3.289,3.289,0,0,1-.96,2.625Z" transform="translate(-193.173 -221.743)" fill="#0f313d" fill-rule="evenodd"/>
  <path id="Path_39" data-name="Path 39" d="M471.827,221.168q-2.648-2.69-7.66-2.69t-7.66,2.69q-3.553,3.175-3.553,9.508,0,6.209,3.553,9.508,2.648,2.689,7.66,2.689t7.66-2.689q3.536-3.3,3.537-9.508,0-6.334-3.537-9.508Zm-3.053,15.513a5.612,5.612,0,0,1-4.607,2.111,5.679,5.679,0,0,1-4.631-2.111,11.3,11.3,0,0,1,0-12.01,5.678,5.678,0,0,1,4.631-2.111,5.6,5.6,0,0,1,4.607,2.119,11.415,11.415,0,0,1,0,12Z" transform="translate(-391.737 -218.2)" fill="#0f313d" fill-rule="evenodd"/>
  <path id="Path_40" data-name="Path 40" d="M729.492,230.013a.308.308,0,0,1-.014-.062.5.5,0,0,1,0-.062V229.7a.569.569,0,0,0-.185-.471.715.715,0,0,0-.3-.121.682.682,0,0,0,.364-.141.462.462,0,0,0,.148-.383.53.53,0,0,0-.28-.5,1.014,1.014,0,0,0-.414-.108c-.029,0-.174,0-.433,0h-.585v2.1h.55v-.743h.116l.121.008a.615.615,0,0,1,.188.033.256.256,0,0,1,.154.154.938.938,0,0,1,.034.257,1.512,1.512,0,0,0,.033.291h.525l-.018-.059Zm-.638-1.139a.512.512,0,0,1-.3.077h-.213v-.61h.133a.915.915,0,0,1,.319.044.24.24,0,0,1,.17.239.285.285,0,0,1-.108.25Z" transform="translate(-620.515 -226.149)" fill="#0f313d" fill-rule="evenodd"/>
</svg>
