<svg xmlns="http://www.w3.org/2000/svg" width="381.652" height="50.001" viewBox="0 0 381.652 50.001">
  <path id="Union_1" data-name="Union 1" d="M6643.613,14762.1h-14.5v-14.629h14.5v.211l17.382-17.686v32.319L6643.613,14780ZM6609,14747.685l17.378-17.686v32.319L6609,14780Zm305.842,25.876v-21.351a3.839,3.839,0,0,1,3.851-3.85h5.916c5.39,0,9.381,2.87,9.381,8.82,0,5.983-3.991,8.82-9.381,8.82H6920.1v7.56Zm5.252-19.985v8.435h3.709c3.149,0,4.759-1.539,4.759-4.829s-1.61-4.829-4.759-4.829h-2.485A1.239,1.239,0,0,0,6920.1,14753.575Zm31.744,3.605c0-7.211,5.074-9.17,10.115-9.17s10.115,1.959,10.115,9.17-5.074,9.169-10.115,9.169S6951.84,14764.392,6951.84,14757.181Zm5.249,0c0,3.568,1.962,5.178,4.867,5.178s4.863-1.609,4.863-5.178-1.958-5.182-4.863-5.182S6957.088,14753.608,6957.088,14757.181Zm-256.234,0c0-7.211,5.074-9.17,10.115-9.17s10.115,1.959,10.115,9.17-5.074,9.169-10.115,9.169S6700.854,14764.392,6700.854,14757.181Zm5.252,0c0,3.568,1.958,5.178,4.863,5.178s4.867-1.609,4.867-5.178-1.962-5.182-4.867-5.182S6706.107,14753.608,6706.107,14757.181Zm272.859,8.82a3.558,3.558,0,0,1-3.572-3.012,3.41,3.41,0,0,1,.946-2.9l7.979-7.733h-8.327v-3.991h10.6a3.583,3.583,0,0,1,3.568,3.012,3.515,3.515,0,0,1-.946,2.9l-7.979,7.733h9.414V14766Zm-41.125,0v-9.87c0-5.846,3.743-7.771,9.24-7.771h1.5v3.991h-1.5c-2.311,0-3.991,1.12-3.991,3.6V14766Zm-37.627,0v-9.87c0-5.846,3.747-7.771,9.24-7.771h1.506v3.991h-1.506c-2.308,0-3.988,1.12-3.988,3.6V14766Zm-15.646,0c-3.884,0-7.174-2.1-7.174-7.069v-3.572c0-4.618,3.29-7,7.174-7h4.9c3.846,0,7.173,2.381,7.173,7v.033a3.841,3.841,0,0,1-3.85,3.854h-10.148c0,2.589,1.5,2.763,3.149,2.763h10.29V14766Zm-1.921-10.675v.278h8.747v-.278c0-2.382-1.5-2.975-3.149-2.975H6885.8C6884.149,14752.352,6882.647,14752.944,6882.647,14755.326Zm-11.8,10.675c-3.887,0-7.352-1.4-7.352-7v-18.2h5.252v7.56h5.037v3.991h-5.037v6.51c0,2.447,1.747,3.148,3.5,3.148h1.54V14766Zm-24.922,0c-3.183,0-5.842-1.331-5.842-5.46s2.66-5.46,5.842-5.46h7.737a2.75,2.75,0,0,0-2.8-2.729h-9.485v-3.991h10.535a7,7,0,0,1,7,7v6.792a3.839,3.839,0,0,1-3.85,3.85Zm-.419-5.634a1.449,1.449,0,0,0,1.647,1.643h5.282a1.24,1.24,0,0,0,1.228-1.224v-2.066h-6.51A1.451,1.451,0,0,0,6845.509,14760.367Zm-20.753,5.634c-3.887,0-7.177-2.1-7.177-7.069v-3.572c0-4.618,3.29-7,7.177-7h4.9c3.851,0,7.174,2.381,7.174,7v.033a3.841,3.841,0,0,1-3.85,3.854h-10.149c0,2.589,1.506,2.763,3.149,2.763h10.29V14766Zm-1.925-10.675v.278h8.75v-.278c0-2.382-1.506-2.975-3.149-2.975h-2.452C6824.337,14752.352,6822.831,14752.944,6822.831,14755.326ZM6808.375,14766v-10.152c0-2.729-1.75-3.5-3.676-3.5h-3.92V14766h-5.249v-25.2h5.249v7.56h4.97c4.062,0,7.875,1.506,7.875,7.352V14766Zm-20.3,0c-3.884,0-7.348-1.4-7.348-7v-18.2h5.249v7.56h5.041v3.991h-5.041v6.51c0,2.447,1.751,3.148,3.5,3.148h1.539V14766Zm-23.205,0c-3.884,0-7.174-2.1-7.174-7.069v-3.572c0-4.618,3.29-7,7.174-7h4.9c3.85,0,7.174,2.381,7.174,7v.033a3.84,3.84,0,0,1-3.847,3.854h-10.152c0,2.589,1.506,2.763,3.149,2.763h10.29V14766Zm-1.925-10.675v.278h8.75v-.278c0-2.382-1.506-2.975-3.149-2.975h-2.452C6764.45,14752.352,6762.944,14752.944,6762.944,14755.326ZM6748.489,14766v-10.152c0-2.729-1.751-3.5-3.676-3.5h-2.938V14766h-5.249v-13.649h-5.078a1.239,1.239,0,0,0-1.224,1.224V14766h-5.249v-13.791a3.837,3.837,0,0,1,3.85-3.85h16.94c4.058,0,7.875,1.506,7.875,7.352V14766Zm-57.68,0v-10.745h-12.074V14766h-5.6v-25.2h5.6v9.9h12.074v-9.9h5.6v25.2Z" transform="translate(-6609.001 -14729.999)" fill="#fff"/>
</svg>
