<svg xmlns="http://www.w3.org/2000/svg" width="21.329" height="16.246" viewBox="0 0 21.329 16.246">
  <g id="Group_5495" data-name="Group 5495" transform="translate(0 -61)" opacity="0.39">
    <g id="Group_5494" data-name="Group 5494" transform="translate(0 61)">
      <path id="Path_348" data-name="Path 348" d="M19.454,61H1.875A1.878,1.878,0,0,0,0,62.875v12.5a1.878,1.878,0,0,0,1.875,1.875H19.454a1.878,1.878,0,0,0,1.875-1.875v-12.5A1.878,1.878,0,0,0,19.454,61ZM19.2,62.25,10.7,70.741,2.139,62.25ZM1.25,75.113V63.127l6.019,5.967ZM2.133,76l6.022-6.022,2.11,2.092a.625.625,0,0,0,.882,0l2.058-2.058L19.2,76Zm17.945-.884-5.99-5.99,5.99-5.99Z" transform="translate(0 -61)" fill="#7a7a7a"/>
    </g>
  </g>
</svg>
