<svg xmlns="http://www.w3.org/2000/svg" width="84.024" height="22" viewBox="0 0 84.024 22">
  <g id="Group_10" data-name="Group 10" transform="translate(1.024 1)">
    <g id="Group_9" data-name="Group 9">
      <path id="Path_23" data-name="Path 23" d="M2.944,15.04a5.6,5.6,0,0,0,5.892,5.576c2.322,0,5.649-.744,5.649-4.052,0-3.234-3.05-3.717-6.1-4.387C5.3,11.509,2.251,10.653,2.251,6.75c0-3.791,3.431-4.907,6.447-4.907,3.778,0,6.585,1.747,6.585,6.1H13.966C13.931,4.482,11.678,3.07,8.7,3.07c-2.426,0-5.13.967-5.13,3.68,0,3.048,3.05,3.532,5.927,4.2,3.536.707,6.308,1.6,6.308,5.614,0,4.127-3.847,5.279-6.966,5.279-4.055,0-7.105-2.342-7.209-6.8Z" transform="translate(-1.627 -1.843)" fill="#0e3240" stroke="#0f313d" stroke-width="2"/>
      <path id="Path_24" data-name="Path 24" d="M42.272,12.029c-.069,4.5,2.149,8.588,6.551,8.588,3.362,0,5.754-2.156,6.378-5.688h1.317c-.693,4.461-3.466,6.914-7.695,6.914-5.2,0-7.937-4.387-7.868-9.666-.069-5.242,2.5-10.334,7.868-10.334,5.58,0,8.076,4.721,7.833,10.186ZM55.339,10.8C55.27,6.787,52.913,3.07,48.823,3.07c-3.952,0-6.274,3.94-6.551,7.732Z" transform="translate(-22.585 -1.843)" fill="#0e3240" stroke="#0f313d" stroke-width="2"/>
      <path id="Path_25" data-name="Path 25" d="M97.873,21.4H96.555V17.605h-.069a6.832,6.832,0,0,1-6.621,4.238c-3.362,0-5.962-1.375-5.962-5.39,0-4.461,3.605-5.39,6.551-5.651,5.892-.446,6.135-.855,6.135-3.978,0-.855-.9-3.754-4.957-3.754-3.188,0-5.3,1.784-5.476,5.093H84.84c.173-4.2,2.6-6.32,6.793-6.32,3.12,0,6.24,1.041,6.24,4.981ZM96.555,10.542c-1.04,1.264-3.882,1.115-6.447,1.487-3.12.372-4.888,1.561-4.888,4.424,0,2.3,1.56,4.164,4.679,4.164,6,0,6.655-5.5,6.655-6.506Z" transform="translate(-45.689 -1.843)" fill="#0e3240" stroke="#0f313d" stroke-width="2"/>
      <path id="Path_26" data-name="Path 26" d="M128.712,7.006h.1c.693-2.5,3.6-4.51,6.828-4.362V4.062a5.771,5.771,0,0,0-4.922,1.864c-1.317,1.454-1.872,2.647-2.01,5.517V21.917h-1.317V2.757h1.317Z" transform="translate(-69.924 -2.333)" fill="#0e3240" stroke="#0f313d" stroke-width="2"/>
      <path id="Path_27" data-name="Path 27" d="M148.876,15.04a5.6,5.6,0,0,0,5.893,5.576c2.322,0,5.649-.744,5.649-4.052,0-3.234-3.05-3.717-6.1-4.387-3.085-.669-6.135-1.524-6.135-5.428,0-3.791,3.432-4.907,6.447-4.907,3.778,0,6.586,1.747,6.586,6.1H159.9c-.035-3.457-2.288-4.87-5.269-4.87-2.426,0-5.129.967-5.129,3.68,0,3.048,3.05,3.532,5.926,4.2,3.536.707,6.308,1.6,6.308,5.614,0,4.127-3.847,5.279-6.966,5.279-4.055,0-7.105-2.342-7.209-6.8Z" transform="translate(-79.735 -1.843)" fill="#0e3240" stroke="#0f313d" stroke-width="2"/>
    </g>
  </g>
</svg>
