<svg id="Group_11" data-name="Group 11" xmlns="http://www.w3.org/2000/svg" width="109.2" height="21" viewBox="0 0 109.2 21">
  <path id="Path_28" data-name="Path 28" d="M386.842,431.332a1.661,1.661,0,1,0,1.657,1.657,1.661,1.661,0,0,0-1.657-1.657Zm0,3.122a1.461,1.461,0,1,1,1.457-1.466,1.46,1.46,0,0,1-1.457,1.466Z" transform="translate(-279.299 -413.99)" fill="#0f313d" fill-rule="evenodd"/>
  <path id="Path_29" data-name="Path 29" d="M388.445,433.078a.455.455,0,0,0-.209-.4.855.855,0,0,0-.452-.091h-.809v1.857h.227v-.856h.417l.531.856h.27l-.561-.856h0c.33-.009.587-.143.587-.509Zm-.9.33H387.2v-.656h.53c.231,0,.483.034.483.322,0,.379-.4.335-.665.335Z" transform="translate(-280.049 -414.513)" fill="#0f313d" fill-rule="evenodd"/>
  <path id="Path_30" data-name="Path 30" d="M360.855,413.851l3.4-4.033h0a1.354,1.354,0,0,0,.295-.681c0-.3-.229-.415-.949-.415h-.857v-2.546h9.275v2.546H370.8c-1.407,0-1.669.237-3.632,2.99h0l-5.373,6.454V422.1h0c0,1.007.458,1.361,1.767,1.361h2.028v2.457H352.6v-2.457h2.03c1.308,0,1.767-.354,1.767-1.361h0v-3.938l-6.328-7.786h0c-1.047-1.361-.9-1.658-3.813-1.658h0v-2.546H358v2.546h-.837c-.851,0-1.211.178-1.211.533,0,.3.262.533.425.77h0l3.2,3.881h0a.735.735,0,0,0,1.277-.054Z" transform="translate(-263.048 -405.482)" fill="#0f313d" fill-rule="evenodd"/>
  <path id="Path_31" data-name="Path 31" d="M222.557,405.833h2.833V412.9h-2.617a4.549,4.549,0,0,0-1.76-2.7,10.3,10.3,0,0,0-6.557-2.448c-3.09,0-5.7,1.059-5.7,2.619,0,4.327,17.677.884,17.677,9.065,0,4.267-3.787,6.651-10.587,6.651a18.373,18.373,0,0,1-8.018-2.042c-.659-.421-.938.4-1.062,1.424h-2.906v-7.3h2.628a5.72,5.72,0,0,0,2.113,2.972c1.275,1.3,4.309,2.238,7.091,2.207,4.195-.046,5.637-1.06,5.637-2.531s-1.427-1.825-6.024-2.619h0l-3.9-.706h0c-4.4-.736-7.611-1.825-7.611-5.71,0-4.032,4.057-6.563,10.471-6.563a12.725,12.725,0,0,1,7.135,1.756c.6.432,1.166.484,1.159-1.137Z" transform="translate(-203.793 -405.08)" fill="#0f313d" fill-rule="evenodd"/>
  <path id="Path_32" data-name="Path 32" d="M316.212,418.152l.056-7.9h0c0-1.035-.484-1.391-1.869-1.391h-1.627v-2.457h10.352v2.457h-1.349c-1.386,0-1.871.356-1.871,1.391h0v15.9l-4.053-.035-13.12-13.82v10.036h0c0,1.007.485,1.391,1.869,1.391h1.8v2.428h-10.75v-2.428h1.781c1.385,0,1.87-.384,1.87-1.391h0v-12.08h0c0-1.035-.485-1.391-1.87-1.391h-1.781v-2.457h9.3l11.266,11.745Z" transform="translate(-241.999 -405.578)" fill="#0f313d" fill-rule="evenodd"/>
  <path id="Path_33" data-name="Path 33" d="M261.811,404.984c-8.25,0-13.414,4.033-13.414,10.507,0,6.357,5.093,10.359,13.163,10.359,8.572,0,13.558-3.943,13.558-10.683,0-6.062-5.38-10.183-13.306-10.183Zm-.188,18.306c-4.567,0-7.192-2.914-7.192-7.947,0-4.914,2.739-7.828,7.419-7.828,4.49,0,7.116,2.973,7.116,8.035,0,4.944-2.663,7.74-7.344,7.74Z" transform="translate(-222.346 -404.984)" fill="#0f313d" fill-rule="evenodd"/>
</svg>
