<svg xmlns="http://www.w3.org/2000/svg" width="13.904" height="16.665" viewBox="0 0 13.904 16.665">
  <g id="Group_5078" data-name="Group 5078" transform="translate(-42)" opacity="0.7">
    <path id="Path_94" data-name="Path 94" d="M133.045,8.028a3.884,3.884,0,0,0,2.838-1.176,3.884,3.884,0,0,0,1.176-2.838,3.884,3.884,0,0,0-1.176-2.838,4.013,4.013,0,0,0-5.676,0,3.884,3.884,0,0,0-1.176,2.838,3.884,3.884,0,0,0,1.176,2.838A3.885,3.885,0,0,0,133.045,8.028ZM130.9,1.866a3.036,3.036,0,0,1,4.295,0,2.9,2.9,0,0,1,.89,2.147,2.9,2.9,0,0,1-.89,2.148,3.036,3.036,0,0,1-4.295,0,2.9,2.9,0,0,1-.89-2.148A2.9,2.9,0,0,1,130.9,1.866Z" transform="translate(-84.198 0)" fill="#7a7a7a"/>
    <path id="Path_95" data-name="Path 95" d="M55.87,252.081a9.915,9.915,0,0,0-.135-1.053,8.293,8.293,0,0,0-.259-1.059,5.229,5.229,0,0,0-.435-.987,3.722,3.722,0,0,0-.656-.855,2.894,2.894,0,0,0-.943-.592,3.258,3.258,0,0,0-1.2-.218,1.222,1.222,0,0,0-.652.277c-.2.128-.424.275-.68.438a3.893,3.893,0,0,1-.879.387,3.415,3.415,0,0,1-2.151,0,3.88,3.88,0,0,1-.879-.387c-.253-.162-.482-.309-.68-.438a1.221,1.221,0,0,0-.652-.277,3.253,3.253,0,0,0-1.2.218,2.891,2.891,0,0,0-.943.592,3.724,3.724,0,0,0-.656.855,5.241,5.241,0,0,0-.435.988,8.315,8.315,0,0,0-.259,1.059,9.847,9.847,0,0,0-.135,1.053c-.022.318-.033.649-.033.984a2.767,2.767,0,0,0,.822,2.094,2.958,2.958,0,0,0,2.118.772h8.025a2.959,2.959,0,0,0,2.118-.772,2.766,2.766,0,0,0,.822-2.094C55.9,252.729,55.893,252.4,55.87,252.081Zm-1.462,2.371a1.992,1.992,0,0,1-1.445.5H44.94a1.992,1.992,0,0,1-1.444-.5,1.807,1.807,0,0,1-.519-1.386c0-.312.01-.621.031-.917a8.881,8.881,0,0,1,.122-.948,7.335,7.335,0,0,1,.228-.933,4.267,4.267,0,0,1,.354-.8,2.759,2.759,0,0,1,.482-.632,1.921,1.921,0,0,1,.627-.39,2.248,2.248,0,0,1,.769-.148c.034.018.1.053.194.117.2.131.432.28.688.443a4.837,4.837,0,0,0,1.1.493,4.39,4.39,0,0,0,2.752,0,4.845,4.845,0,0,0,1.1-.494c.262-.167.487-.312.687-.443.1-.064.16-.1.194-.117a2.249,2.249,0,0,1,.769.148,1.923,1.923,0,0,1,.627.39,2.752,2.752,0,0,1,.482.632,4.249,4.249,0,0,1,.354.8,7.315,7.315,0,0,1,.228.933,8.957,8.957,0,0,1,.122.949h0c.021.295.031.6.031.916A1.807,1.807,0,0,1,54.409,254.451Z" transform="translate(0 -239.266)" fill="#7a7a7a"/>
  </g>
</svg>
